<svg xmlns="http://www.w3.org/2000/svg" viewBox="0 0 100 100" style="">
  <path fill="#fff" stroke="#fff" stroke-linecap="square" stroke-miterlimit="0" stroke-width=".02645833" d="M85.391038 34.23407c-.09222 0-.181398.015-.267633.0436-.08739.029-.168655.0758-.24086.14111-.0704.0614-.129314.14944-.175446.25913-.04902.11063-.07521.24373-.07881.39255-.02532.85191-.05329 1.74473-.08177 2.67856-.02848.93376-.05757 1.8884-.08921 2.86587v.003c-.02848.97195-.05905 1.95638-.0907 2.95566-.03164.99938-.06351 1.99062-.09516 2.97362-.02848.98277-.05906 1.94922-.0907 2.89921v.003c-.02848.94466-.05627 1.85366-.08475 2.72731-.02531.87362-.05052 1.70028-.07583 2.48101-.02215.77545-.04346 1.48514-.06245 2.1295l.0565.11034.07731.008h.01041l1.011034-.21295.05352-.0975c.02515-.80288.08539-1.60597.182883-2.40917.09761-.80414.220878-1.57373.368728-2.30655.147934-.73863.314237-1.42117.499571-2.04996.185479-.63472.377056-1.18115.573916-1.63947.200072-.46392.399497-.82538.596212-1.08528.198938-.25878.379613-.37972.542689-.37972.215586 0 .376522.13242.502548.41563v.003c.123939.27355.191797.70292.191797 1.29565 0 .24594-.01066.57721-.03271.99036-.01897.40926-.0416.86305-.06691 1.35981-.02216.49721-.04475 1.0165-.06691 1.55736-.01905.54263-.02825 1.07032-.02825 1.58046 0 .42232.0066.81706.01933 1.18534v.003c.01608.37169.04757.6978.09665.98009l.0015.003c.05306.28611.132405.51748.239376.69016.110891.17901.262845.26684.444563.26684.152159 0 .324469-.0474.517408-.13599.192954-.0832.385848-.19253.578376-.33096.195002-.13792.379956-.29093.556072-.4567.176382-.16601.323874-.32897.441587-.49261l.01784-.11801-.0892-.42591-.08178-.059c-.177585.13979-.354066.25066-.527814.33097-.172416.0742-.33792.11033-.496603.11033-.107747 0-.196479-.0267-.266141-.0744h-.0015c-.06401-.0499-.115977-.13679-.157602-.26939-.04286-.14297-.07808-.34538-.09962-.6055h.0015c-.01851-.26098-.02825-.60297-.02825-1.02627 0-.23793.0039-.52247.01338-.85437.01264-.33283.02731-.68338.04312-1.0545.0158-.37093.03307-.74701.05204-1.12889.02219-.38292.04064-.74556.0565-1.09042.01585-.35004.02913-.6648.03866-.94417.01273-.28551.01933-.50885.01933-.67733 0-.54909-.03877-1.02484-.117461-1.42652-.07805-.39848-.184688-.72933-.32115-.98778-.131848-.25596-.284921-.44608-.457938-.56701h-.0015c-.17132-.12473-.350602-.1873-.535252-.1873-.268539 0-.547142.13902-.835595.41307-.290867.27634-.578582.72112-.866815 1.32902-.285644.60368-.566257 1.38655-.843025 2.35272v.003c-.235212.83063-.454315 1.88927-.66758 3.02748.02268-.56115.04633-1.12181.06541-1.62406.02849-.67181.05497-1.31474.08029-1.93196.02532-.62249.05052-1.23381.07583-1.83445.02527-.59971.05186-1.2152.08029-1.84215v-.003c.03161-.63272.06485-1.2935.09962-1.9807.03797-.68806.0791-1.42746.123406-2.2193.04746-.79723.100638-1.65789.157602-2.5862.05695-.93357.120506-1.9598.19329-3.07369l-.03271-.10518c-.215351-.18018-.423835-.27198-.624463-.27198zm0 .20783c.166981 0 .345144.0892.532275.23604-.07022 1.07663-.133501 2.07701-.188821 2.98388-.05697.92851-.110123 1.7913-.157602 2.58877-.04431.79192-.08543 1.53371-.123406 2.22188-.03482.68815-.06797 1.34972-.09962 1.98326-.02849.62822-.05496 1.24379-.08029 1.84472-.02533.60083-.05051 1.21179-.07583 1.83447-.02532.61702-.05181 1.26029-.08029 1.93195l-.0015.003c-.02531.66606-.05311 1.38272-.08475 2.1526l.05055.11033.02825.008.0684-.0718c.242999-1.37779.499891-2.54508.770173-3.49957.273906-.95619.550461-1.72737.828158-2.31425.281435-.59357.55866-1.01884.831127-1.27771.274888-.26115.533448-.38741.777611-.38741.169318 0 .331762.057.489166.1719h.0015c.155661.10848.293767.27812.414821.51313v.003c.123057.23307.222027.53637.295876.91338.07323.37382.111516.82757.111516 1.35981 0 .1592-.0067.37948-.01933.66194v.003c-.0095.27768-.02286.59005-.03866.93904-.01579.34326-.03439.70619-.0565 1.08784v.003c-.01901.38269-.0362.75966-.05204 1.13147-.01583.37161-.03045.72361-.04312 1.05704v.003c-.0095.33436-.01487.62196-.01487.86463 0 .42865.01028.7777.02974 1.05192v.003c.02277.27508.05793.49843.110024.67221l.0015.003c.05252.16915.126223.29421.218563.36432l.0015.003c.0884.061.192703.0898.312227.0898.169996 0 .346324-.0397.527822-.11802v-.003c.160502-.0742.322238-.18068.484704-.30274l.05352.25143c-.1057.14112-.230637.28544-.388056.4336-.17202.16191-.353076.31128-.544181.44642-.187245.13464-.37519.24268-.562017.32329-.186171.0857-.349102.12571-.487673.12571-.160083 0-.277461-.0701-.362789-.20781-.08896-.14362-.158463-.34156-.206665-.60037v-.003c-.04567-.26339-.07665-.57475-.09218-.93389-.01258-.36353-.01933-.75381-.01933-1.17252 0-.50482.0094-1.02731.02825-1.56507v-.003c.02207-.53862.04483-1.05705.06691-1.55223v-.003c.02522-.49518.04796-.94869.06691-1.35724v-.003c.02214-.4155.0327-.7499.0327-1.00576 0-.61966-.06883-1.09676-.217071-1.42394-.146092-.32715-.351713-.50031-.597704-.50031-.197705 0-.403053.14692-.615541.42334-.208377.2753-.414981.65092-.620001 1.12633-.201915.47008-.396354 1.02704-.584322 1.67025-.188113.63821-.357446 1.33139-.507009 2.0782-.149647.74172-.273091 1.51725-.371704 2.32964-.09519.78419-.151314 1.56823-.178414 2.35273l-.960487.20267h-.01041c.0182-.61869.03693-1.28974.05799-2.02688v-.003c.0253-.78048.05053-1.60792.07583-2.48101.02849-.87395.05775-1.78238.08623-2.72731.03163-.94968.06074-1.91684.08921-2.89921v-.003c.03161-.98222.06353-1.97246.09516-2.97105.03164-.99954.0622-1.98596.09069-2.95822.03165-.97766.06072-1.93443.0892-2.86842.02849-.93392.05645-1.82656.08177-2.67856.0027-.11333.02027-.20204.05353-.2771l.0015-.003c.03564-.0851.0788-.1501.133813-.19756h.0015c.06072-.0549.129497-.095.206673-.12058.07833-.026.160304-.041.245328-.041zm-62.901402 2.7735c-.308438 0-.611173.0627-.90696.18472-.292259.11659-.569151.29031-.829645.5234-.257649.22787-.496258.50825-.71516.84154v.003c-.216159.33403-.404062.71339-.562019 1.14173v.003c-.155058.42366-.275875.88985-.362783 1.40086-.08727.50756-.130841 1.05686-.130841 1.6446 0 .47238.03306.90522.09813 1.29823.0678.38996.158526.74771.272088 1.07246v.003c.116473.32381.254854.61982.413337.88772.157188.26018.327361.50455.509979.73122.18202.22593.371572.43801.569451.63629.199424.19664.399748.38895.599189.57471.189641.17998.375744.35882.559044.53878h.0015c.181855.17314.354598.35711.517414.55162v.003c.165318.18838.316672.38832.45348.60293l.0015.003c.138763.21283.25703.44592.35535.70043v.003c.100807.24775.178221.52189.233431.82357h.0015c.05774.29368.08624.62101.08624.98266 0 .57136-.06083 1.07172-.182879 1.50349-.122978.42974-.288163.78666-.496597 1.07759v.003c-.205789.29151-.446103.51008-.721108.65938-.275713.14434-.566426.21808-.87425.21808-.308299 0-.585904-.0602-.83262-.17703h-.0015c-.241901-.12185-.448368-.31522-.621491-.57728-.168851-.26062-.302009-.59664-.39698-1.01344v-.003c-.09134-.42128-.138275-.93722-.138275-1.54967 0-.11857.0013-.23805.0045-.35662.0031-.11714.01001-.24087.01933-.36946l-.0565-.11545-.480243-.041-.06245.0975c-.03166.9398-.05552 1.7513-.07137 2.43482-.01267.68326-.01933 1.20992-.01933 1.57789 0 .20671.07417.39531.199234.56445l.0015.003c.127424.16203.294331.30088.504031.42335h.0015c.213048.12254.457918.22079.735976.29249v-.003c.278889.0774.575926.11803.892092.11803.24139 0 .502247-.043.783554-.12572.282693-.0776.565413-.20745.847487-.38998.282944-.18309.553264-.42438.813291-.72352.26474-.30085.498626-.66921.701779-1.10325h.0015c.204001-.44143.36414-.95586.483216-1.54453.123054-.59233.184366-1.26904.184366-2.02689 0-.46115-.03436-.88268-.102591-1.26488v-.003c-.06464-.37849-.155477-.72566-.272088-1.0391v-.003c-.113435-.31845-.250237-.60507-.408876-.86207-.154263-.26049-.322633-.49989-.505518-.71582v.003c-.18218-.22061-.372749-.42804-.573913-.62088-.196769-.19169-.394783-.37859-.594728-.55932-.192932-.18011-.384147-.3587-.573912-.5388-.187853-.17828-.366348-.36512-.535255-.55931l-.0015-.003c-.168234-.19908-.325297-.40856-.468348-.62858-.141994-.21839-.265421-.46015-.370219-.72608h.0015c-.101358-.26501-.182336-.55358-.240866-.8672h.0015c-.058-.31608-.08772-.66744-.08772-1.05707 0-.47876.05081-.91553.151656-1.31106.101336-.39742.240265-.73591.417796-1.02113.177601-.29062.387259-.51545.630412-.67477.245909-.16444.511071-.24887.795448-.24887.285471 0 .54301.0701.773147.20781.232901.13221.429375.33321.590267.60037.163658.26149.290239.59088.379139.99292v.003c.09154.39492.138274.85534.138274 1.38547 0 .17706-.0055.36277-.01487.55675l.05799.11289.478756.0411.06393-.0975c.01267-.39895.02321-.77614.03271-1.13147.0095-.3603.01614-.69203.01933-.99291v-.003c.0063-.30497.01171-.57354.01487-.80819.0032-.24081.0045-.44336.0045-.60293 0-.17449-.04063-.33926-.114484-.48491-.07194-.14187-.165721-.26861-.281009-.38229-.114656-.11305-.247258-.2115-.395494-.29506h-.0015c-.144566-.0886-.296406-.16245-.456454-.22321-.16001-.0607-.320104-.10568-.480243-.13341h-.0015c-.15974-.033-.310459-.0513-.451994-.0513zm8.730606 0c-.606934 0-1.16422.14784-1.671186.44129-.505671.28718-.960753.68599-1.3649 1.20074-.403452.50834-.757466 1.10801-1.06159 1.79854v.003c-.300294.68909-.551096 1.43073-.75233 2.22444-.1979.79316-.348434 1.62416-.450507 2.49384-.09885.86386-.148681 1.72734-.148681 2.58621 0 .89158.05087 1.73992.153142 2.54515.10537.79893.254026 1.54221.446046 2.227.191988.68467.42487 1.30188.697319 1.85498.272434.54755.57741 1.01575.914393 1.40343.33683.38749.701679.68536 1.092813.89028.395229.21071.810061.31559 1.242982.31559.326761 0 .65327-.0537.979813-.16421.330881-.10532.657567-.28476.981302-.53366.32397-.24909.646902-.57501.966433-.97752.320351-.40354.636118-.90157.948591-1.4958l.0045-.008c.02839-.0674.04907-.12357.04907-.20267 0-.0762-.01795-.14795-.04609-.2104-.02231-.0563-.04966-.1057-.08178-.1488-.03085-.0468-.06416-.0881-.101103-.12316l-.0015-.003c-.0319-.0329-.06114-.0592-.08772-.0821l-.06691.0154c-.263704.41172-.529474.76522-.795449 1.0622-.263368.29217-.524165.53708-.783554.73122v-.003c-.259423.18877-.514946.3294-.767199.42076-.249577.0861-.492255.12829-.728542.12829-.338682 0-.661045-.0901-.967919-.27197-.303759-.18184-.586563-.44507-.850461-.78766-.261055-.34859-.498531-.77185-.7107-1.27258-.21208-.5005-.392447-1.06652-.542689-1.69846-.150176-.63167-.266303-1.32273-.347916-2.07564-.08153-.75214-.121919-1.55495-.121919-2.4066 0-.72113.03084-1.43254.09367-2.13722.06593-.70431.162868-1.37563.291417-2.01405.13153-.63767.295239-1.22586.492137-1.76518.199522-.54334.432962-1.00929.700292-1.40087.26679-.39613.569793-.70382.908448-.92363.340491-.22434.719644-.33867 1.137416-.33867.242725 0 .480493.0424.713674.12828v.003c.233107.0805.451205.19881.655687.35919.204504.1604.391929.35787.562019.59268v.003c.172758.23423.321383.50016.444559.80306h-.0015c.116464.30145.195258.61567.237891.94673l.0015.003c.04634.33052.07124.67964.07434 1.04936 0 .074-.0029.14482-.0059.21296v.008c0 .0626-.0014.13091-.0045.20526l.05799.11032.413336.0257.06245-.10007c.02532-.85209.04662-1.57723.06245-2.17825.01585-.60172.02379-1.09078.02379-1.47013 0-.22868-.08759-.44958-.239377-.67735-.152248-.22845-.358296-.43712-.618517-.63114-.261043-.19466-.57035-.35789-.927776-.49005-.356094-.13286-.742925-.20012-1.161206-.20012zm-8.730606.21038c.136506 0 .282453.0138.438612.0462l.0015.003c.155859.0269.312358.0691.468348.12829.155952.0592.303193.13225.443072.21807h.0015c.142351.0801.266674.17206.373192.2771.106249.10476.190289.2184.251273.33866.05907.11649.08475.22852.08475.34894 0 .15718-.0013.35803-.0045.59781-.0032.23425-.0085.50268-.01487.80818v.003c-.0032.29923-.0099.62814-.01933.98779-.0086.32241-.0185.66769-.02974 1.02627l-.35981-.0308c.0064-.15945.0119-.31796.0119-.46695 0-.5512-.04885-1.03816-.147195-1.46244h.0015c-.09466-.42808-.232219-.78525-.410362-1.06988-.174408-.28913-.385665-.50594-.633385-.64655-.244586-.14631-.514948-.21809-.811804-.21809-.29795 0-.578104.0875-.838566.2617-.25689.16834-.481037.40828-.670556.7184-.189163.3043-.338673.6693-.446046 1.0904-.108027.42367-.162063.8889-.162063 1.39316 0 .40773.03141.78193.09367 1.12121.06173.3308.146725.63738.254246.91851.11041.28019.240377.53514.389547.76457.147609.22702.308843.4447.481729.64912.172404.19833.354351.388.545663.56957.190014.18034.382224.36103.5754.54136.198822.17972.396085.36615.591753.55676.197604.18943.386383.39177.564992.60806.177583.20967.341313.44041.49065.69273l.0015.003c.15123.24498.280078.52012.38806.82358.11067.29706.196913.62779.258707.99036h.0015c.06442.35993.09664.76137.09664 1.20585 0 .73856-.05946 1.38959-.176931 1.95506v.003c-.115122.56911-.27061 1.06151-.465375 1.48295-.195614.41793-.420726.77067-.675016 1.05964-.252674.29068-.515436.52563-.789501.70298-.274935.17792-.549384.30442-.823699.37972h-.0015c-.275701.0811-.529405.12059-.762738.12059-.310469 0-.60246-.0374-.87425-.11289-.272083-.0701-.510721-.16479-.71516-.28222h-.0015c-.200226-.11715-.357113-.24973-.469834-.39255l-.0015-.003c-.107361-.1463-.151656-.27761-.151656-.39769 0-.36382.0067-.88813.01933-1.57019.01514-.65299.03874-1.43824.06839-2.32706l.355349.0308c-.0055.0922-.01109.18496-.01338.27197-.0032.12172-.0045.24516-.0045.36688 0 .63174.04745 1.17193.145708 1.62408l.0015.003c.101045.44436.243312.81068.428204 1.09555.187345.28359.41151.49149.669068.6209h.0015c.25933.12306.547536.18472.865329.18472.31881 0 .622308-.0752.909934-.22579.288332-.15653.542953-.39119.761251-.70042.221554-.3096.399278-.69248.529308-1.14685.131133-.46389.19626-.99851.19626-1.59586 0-.38016-.03145-.7294-.09367-1.04679v-.003c-.05856-.31925-.142338-.6104-.249786-.87489v-.003c-.104107-.26917-.228895-.5153-.374679-.73892-.141414-.22183-.297104-.42988-.466861-.62346h-.0015c-.165686-.19784-.340378-.38617-.524847-.56188h-.0015c-.183461-.18011-.370777-.36126-.560531-.54135-.198948-.18528-.39725-.37595-.596215-.57215-.194558-.19495-.381761-.40157-.560531-.62346-.177595-.22043-.342562-.45843-.495111-.71069l-.0015-.003c-.151033-.25571-.282981-.53801-.394007-.84668h.0015c-.107975-.30876-.195068-.64909-.260194-1.0237-.06152-.37157-.09218-.7832-.09218-1.23922 0-.57005.04126-1.0992.124894-1.58559.08399-.49386.200637-.94309.349402-1.34955.152196-.4127.331789-.77936.539715-1.10068.211513-.32204.441162-.59079.689885-.81074v-.003c.251795-.22529.519657-.39265.802883-.50543.28654-.11824.579503-.17704.87871-.17704zm8.730606 0c.410902 0 .789434.0631 1.13593.19243.351494.12997.653816.28956.905473.47722.25248.18825.44838.38934.587295.5978.139373.20913.196259.38906.196259.52083 0 .3743-.0065.86012-.0223 1.45987-.01509.57286-.03574 1.27653-.05947 2.07819l-.292903-.0205c.000761-.0342.0029-.0706.003-.10262v-.008c.0031-.0715.0045-.14436.0045-.22065v-.003c-.0032-.38393-.02871-.74887-.07731-1.09555-.04598-.35706-.131671-.69488-.255734-1.016l-.0015-.003c-.130009-.31969-.285159-.60288-.466861-.84923-.178041-.24578-.374041-.45363-.587293-.6209-.212852-.16695-.439882-.29121-.680964-.37458h-.0015c-.24108-.0886-.486974-.13343-.737463-.13343-.430398 0-.824766.1171-1.180534.3515-.350866.22775-.665321.54814-.942644.95957-.277019.40576-.518506.88977-.724081 1.44961-.20187.55293-.371204 1.15506-.505519 1.80623-.130966.65043-.228887 1.33437-.295878 2.04997-.06377.71524-.09664 1.43899-.09664 2.17057 0 .86317.04185 1.679.124893 2.44508.08296.76532.201704 1.47042.35535 2.11668.153581.64599.339223 1.22682.557558 1.74209.218246.51508.462368.95483.733002 1.31621.273817.35575.570011.62918.886145.81844.31976.1895.655329.28479 1.006576.28479.244767 0 .495538-.0448.752332-.13341h.0015c.260448-.0943.523564-.24009.789501-.4336.265972-.19907.533074-.44639.801397-.74405.259975-.29028.518368-.64155.774633-1.03653.01605.0151.03043.0269.04906.0462l.003.003c.03098.0292.05831.0618.08326.10005l.003.005c.02371.0318.04272.0657.05799.1052l.003.008c.01616.0358.02082.06.02082.0821 0-.0122-.0069.0272-.02379.0718-.307328.58412-.617171 1.07443-.929263 1.46757-.313433.39484-.628807.712-.94413.95443-.31556.24262-.633466.41607-.954539.51828-.319079.10795-.638649.16163-.957511.16163-.421582 0-.823982-.10353-1.207299-.30788-.380587-.19918-.734181-.48542-1.061589-.86206-.327628-.37691-.623533-.83116-.889118-1.36494-.265571-.53915-.491687-1.14423-.679477-1.81393-.187759-.66961-.333617-1.39601-.437124-2.18083-.100274-.78946-.150169-1.62111-.150169-2.49896 0-.84506.04834-1.69419.145708-2.54516.100476-.85609.247047-1.67311.441585-2.45278.197361-.77845.444602-1.5051.73895-2.18083.297192-.67479.642231-1.26095 1.036314-1.75749.393386-.50104.836292-.89173 1.330703-1.17252h.0015c.493118-.28543 1.03683-.42846 1.632528-.42846zm11.174937.0436c-.343665 0-.702949.0273-1.077943.0821-.371309.0493-.742337.11542-1.113629.19756-.367737.0821-.727471.17348-1.079431.27197-.348444.0984-.670183.19438-.964946.28736l-.04906.11545.0565.72864.06839.0898c.324156-.0814.589662-.12057.793962-.12057.148135 0 .268234.0241.358324.0693.09002.0451.15444.11117.199234.19756l.0015.003c.04874.0888.08389.20474.104077.35408.02074.15335.03122.34085.03122.56443 0 1.36477-.0067 2.7004-.01933 4.00503-.01266 1.29936-.02989 2.61386-.05204 3.94601v.003c-.01898 1.32657-.04419 2.69174-.07583 4.09482-.03164 1.40343-.0661 2.88672-.104078 4.45401l.05353.10777.08624.018h.01338l1.125523-.24631.05204-.10006c.02215-1.24517.04475-2.49269.06691-3.74332.02216-1.25618.04346-2.4786.06245-3.66379.01899-1.19046.03751-2.32822.0565-3.41492.01899-1.09242.03492-2.09468.04758-3.00697.01583-.91766.02767-1.72745.03717-2.43225.01199-.66713.02045-1.18571.02676-1.59842.158289-.0326.307514-.0601.440099-.0795.146871-.0216.302353-.0308.465375-.0308.759353 0 1.322814.31314 1.700921.92877.377688.61495.569452 1.54652.569452 2.81711 0 .66213-.05243 1.25962-.157602 1.7934-.104574.52544-.273252.97511-.507006 1.35725-.229788.38067-.533244.68527-.912907.91082-.378581.22489-.846118.35974-1.402071.39767l-.05799.0872-.0089.10776.0059.0641c.414879 1.28975.794921 2.42789 1.140391 3.41234.34535.98413.66025 1.8378.942644 2.56055.285457.71699.54113 1.31759.767198 1.80111.225259.4763.424233.85618.597703 1.13915.000289.00049.0012-.00048.0015 0 .000215.00036-.000214.002 0 .003.104756.17517.204582.32931.297364.46181v.003c.09445.12927.189796.23532.28547.3207.0955.0853.193313.14956.292903.18986.100274.0461.204397.0693.313719.0693.217728 0 .481757-.0836.795449-.24374.314119-.15486.672525-.38979 1.076457-.70812l.03271-.12829-.133813-.67221-.07732-.0641c-.134007.086-.256666.15001-.367245.19242-.109307.0419-.225351.0616-.347916.0616-.112743 0-.219793-.0198-.322639-.0616-.101711-.0413-.2047-.10874-.307772-.20269h-.0015c-.09997-.0943-.205772-.22055-.316693-.37458h-.0015c-.111487-.16044-.231583-.35805-.35981-.59011-.162992-.28667-.337545-.62471-.52336-1.01601-.18561-.3963-.389945-.87125-.614057-1.42139-.224021-.55536-.470326-1.20087-.73895-1.93708-.25749-.70569-.546424-1.5333-.859381-2.45535.412337-.19467.795662-.4424 1.13593-.76457.362868-.34357.672918-.75746.927775-1.24179.258123-.48439.455982-1.03212.594728-1.6446.142299-.61946.212616-1.2993.212616-2.03715 0-.79897-.08231-1.47563-.25276-2.02431-.169095-.54431-.404018-.98472-.700292-1.3162-.295074-.33533-.642454-.57211-1.040773-.71068-.397069-.14367-.826563-.21553-1.289074-.21553zm-26.090713.18217c-.223919 0-.514642.0522-.87425.15651-.356712.10442-.767594.26144-1.23406.46952l-.04609.11289.04758.67989.06988.0898c.08142-.0216.163662-.0402.248298-.0564.08806-.0163.172611-.0302.254247-.0411h.003c.08112-.0161.155057-.028.223024-.0333.07215-.005.134721-.008.187338-.008.150966 0 .269026.0283.35089.077h.003c.08539.0442.145213.11497.187339.21038.04258.0965.07153.22811.08326.40025v.003c.01519.17297.0223.38587.0223.63884 0 .92255-.0026 1.82286-.0089 2.70166v.003c-.0032.87882-.0098 1.75612-.01933 2.63494v.003c-.0063.87315-.0169 1.75308-.03271 2.64264-.01265.88435-.0286 1.79379-.04758 2.72731-.02214 1.11349-.04866 2.17442-.08029 3.18401v.003c-.02842 1.00276-.07239 1.93397-.132327 2.79402-.05673.86478-.134573 1.64128-.231944 2.32964-.09399.69204-.216931 1.27893-.368731 1.76006l-.0015.003c-.148221.4849-.330404.84955-.545663 1.10067-.214005.25486-.467117.38229-.767199.38229-.287422 0-.553821-.12157-.801395-.36945-.247331-.23942-.4665-.64817-.655688-1.23153l-.05353-.0539c-.112374 0-.218368.0404-.315207.11801-.09704.0809-.182852.18283-.257219.30533l-.0015.003c-.07365.12708-.131373.26815-.172471.42077-.04431.15879-.06839.31748-.06839.47209 0 .26656.04888.52147.142735.75943.09078.24369.217881.45511.379139.63116.160927.17569.351521.31263.570939.41307.218116.10675.457191.15908.71516.15908.193917 0 .391881-.0334.594728-.10006.204233-.0671.407796-.17764.611083-.33354.2041-.15653.402919-.36518.596215-.6209v.003c.197638-.2572.382405-.57707.556071-.95445.177069-.37804.339162-.82377.486189-1.33672.147619-.50946.276639-1.09442.385087-1.75491.168581-1.02092.301505-2.12565.399954-3.31485.101501-1.18774.179527-2.41267.233431-3.67662.05704-1.26857.09806-2.55461.123406-3.86134.02532-1.30549.04643-2.58926.06542-3.85108.0063-.47425.01301-.94743.01933-1.41625v-.003c.0095-.46794.01747-.90549.02379-1.30849v-.003c.0094-.40796.01615-.76424.01933-1.06988v-.003c.0063-.31011.0089-.54071.0089-.69017 0-.35116-.0038-.66589-.01338-.94161-.0098-.28245-.04301-.52214-.101104-.72352v-.003c-.05597-.21026-.149632-.37018-.273575-.47209-.124506-.11049-.292634-.15907-.507005-.15907zm26.090713.0282c.455288 0 .87599.0701 1.263797.21039h.0015c.386064.13431.718454.36054.999142.67989.279724.31296.498615.72662.658661 1.2418.158689.5108.239378 1.15038.239378 1.92425 0 .71485-.06749 1.36724-.203694 1.96018h-.0015c-.133427.58899-.322691 1.11459-.570939 1.58045v.003c-.245184.46593-.54417.86453-.896552 1.19817-.352789.33401-.746415.59811-1.182022.79278l-.03717.15395c.329402.97287.62857 1.82971.898039 2.56824.269396.73833.516539 1.38605.741923 1.94479.225292.55302.432164 1.03059.620004 1.43164.187372.39457.364847.73688.530795 1.02883.131009.23711.254043.44101.370218.60806.116201.16154.229202.29318.337508.39512.111693.10204.22444.17731.337508.22322.112361.0456.229436.0693.350889.0693.130621 0 .254632-.0238.373192-.0693.09912-.038.210142-.10007.324127-.16934l.09516.48235c-.376608.29265-.716502.52076-1.008064.66451h-.0015c-.306613.15657-.561224.23347-.761252.23347-.09956 0-.192881-.0203-.282496-.0616h-.003c-.08984-.0362-.178507-.0937-.266142-.1719-.08788-.0785-.175546-.17823-.264653-.30019-.09029-.12894-.186422-.27835-.28993-.45156l-.0015-.003c-.168041-.27386-.363679-.6458-.587294-1.11863-.223336-.47767-.477041-1.07443-.761252-1.78828-.280943-.71902-.593602-1.56835-.938183-2.55028-.34103-.97181-.717519-2.09918-1.127009-3.37129.53793-.0438 1.004872-.16719 1.384229-.39255.392553-.23321.712577-.55125.957512-.95701.247298-.40428.427594-.88601.538229-1.4419.110034-.55846.16355-1.17878.16355-1.86012 0-1.30712-.199435-2.3055-.606622-2.96849-.406768-.66229-1.005435-.98778-1.784184-.98778-.16612 0-.32516.0112-.475782.0333-.149658.022-.314105.054-.495111.0924l-.05353.10007c-.0063.42022-.01559.98126-.02825 1.68565v.003c-.0095.70421-.02135 1.51495-.03717 2.43226-.01266.91178-.02859 1.9149-.04758 3.00698-.01899 1.08688-.039 2.22427-.05799 3.41491-.01899 1.18499-.03881 2.40523-.06096 3.66122-.02162 1.22062-.0438 2.43809-.06542 3.65353l-1.06605.23347-.0223-.003c.03701-1.52966.07015-2.98614.101103-4.35908.03166-1.40402.05683-2.76978.07583-4.09738.02216-1.33295.04086-2.65094.05353-3.95115.01267-1.30584.01784-2.64172.01784-4.00759 0-.23516-.01063-.43887-.0342-.61318-.02395-.17715-.06786-.32804-.132327-.44644-.06281-.12113-.14953-.20592-.255733-.25913-.106129-.0532-.236832-.0795-.392521-.0795-.197386 0-.45431.045-.749357.11546l-.04312-.5311c.27961-.0875.579579-.17694.90696-.26938.35063-.0981.708469-.18763 1.07497-.2694.369277-.0817.738421-.14855 1.107681-.19756h.0015c.371903-.0544.727601-.0795 1.067536-.0795zm-26.090713.1796c.203385 0 .354962.0499.451993.13597h.0015c.10258.0836.172025.20711.217075.37716l.0015.003c.04914.16959.08008.38383.08921.64656.0094.27039.01338.58087.01338.92877 0 .14488-.0026.37432-.0089.68503-.0032.3048-.0098.66343-.01933 1.07246-.0063.4038-.0143.84162-.02379 1.31105-.0063.46968-.013.94368-.01933 1.41882-.01899 1.26128-.04011 2.54352-.06542 3.84852-.02529 1.30374-.06651 2.58819-.123405 3.85364-.0537 1.25916-.132383 2.48134-.233431 3.66379-.09777 1.18098-.230092 2.27596-.396981 3.28663-.10676.6502-.231134 1.22359-.374678 1.71899-.143934.50215-.302035.93646-.472809 1.30081-.168136.36536-.346786.67068-.535255.91594-.186483.24671-.377759.44337-.572426.59267-.19548.14992-.389786.25677-.58432.3207-.19592.0644-.386565.0975-.572426.0975-.248402 0-.47648-.0506-.68245-.15137v-.003c-.210384-.0961-.390847-.22489-.539716-.38743-.148894-.16254-.261853-.35196-.341968-.56701v-.003c-.08281-.20924-.123406-.41985-.123406-.64398 0-.11846.01852-.24617.0565-.38229.03464-.12953.08404-.24988.148682-.36176.06488-.10688.139481-.19732.225997-.2694.07446-.0596.155706-.0828.243838-.0872.190956.56375.410098.99622.669068 1.2469.265128.26547.553305.40025.860869.40025.320223 0 .600194-.14043.835593-.42077.234146-.27315.428719-.66603.58432-1.17507.158353-.5019.284732-1.10534.380626-1.81138.09885-.69879.17623-1.48338.233431-2.35529.06033-.8657.10527-1.79985.133814-2.80685.03167-1.01108.05812-2.07441.08029-3.18913.01898-.93334.03492-1.84299.04758-2.72731v-.003c.01581-.88992.02638-1.77161.03271-2.64521.0095-.8797.01616-1.76038.01933-2.64007.0063-.87973.01041-1.78086.01041-2.70424 0-.25937-.0089-.48003-.02528-.66707v-.003c-.01371-.19807-.04714-.36541-.105565-.49775-.05915-.13396-.145283-.22812-.249785-.28221-.101342-.0596-.230064-.0872-.388061-.0872-.05499 0-.118363.002-.191799.008-.07129.006-.14849.0167-.231944.0334-.08249.011-.167073.0247-.255733.041h-.0015c-.06505.0125-.128518.028-.1918.0436l-.0342-.48235c.440337-.19427.83549-.34503 1.173102-.44386.355641-.1032.642094-.15394.854921-.15394zm60.49424 6.71438c-.35523 0-.685671.20496-.982791.61062-.291878.39735-.559494.94355-.802883 1.63434-.239861.68985-.455617 1.50127-.64974 2.43483-.150869.73329-.280522 1.54805-.407388 2.37325.01495-.26846.03062-.53717.0446-.80562.0253-.49113.04792-.96088.06691-1.40857v-.003c.02212-.4527.04068-.877.0565-1.27001.01584-.39356.02914-.73585.03866-1.03141.01267-.30066.02189-.54474.02825-.73121.0063-.18611.0089-.29307.0089-.34123 0-.42728-.04713-.75882-.150169-.99292-.101834-.24326-.273405-.36432-.493624-.36432-.127921 0-.347472.0706-.675017.20782-.329685.13269-.756985.362-1.283125.69016l-.03866.12059.07137.5901.07434.0795c.11355-.049.212608-.0907.297364-.12316h.0015c.08763-.0378.165469-.0659.233431-.0872.06852-.0215.130595-.0382.185852-.0487.05489-.0105.107657-.0154.15909-.0154.102272 0 .180332.0241.231944.0641l.003.003c.05201.0359.08632.0885.111512.16677l.0015.003c.02908.0821.04922.18975.05799.32583.0092.14227.01338.31389.01338.51314 0 .24421-.0026.57771-.0089 1.00318v.003c-.0032.42476-.01115.90714-.02379 1.44704-.0095.53467-.02284 1.11478-.03866 1.73697-.01265.61654-.0286 1.24256-.04758 1.8755-.01898.6277-.03882 1.24626-.06096 1.85756-.02213.61102-.04609 1.17541-.07137 1.69334l.0565.1129.07583.008h.01189l.991709-.21295.05204-.0949c.01884-.35223.05096-.78581.09516-1.30337.04728-.52214.107317-1.07694.179905-1.66511.07559-.59245.163839-1.19915.264654-1.81907v-.003c.103879-.62444.219192-1.21897.344942-1.78315.128806-.5638.270351-1.07511.423744-1.53427.15268-.46242.316139-.83109.49065-1.10581.105819-.16695.221805-.2942.347917-.38229.125967-.088.25474-.13085.389543-.13085.125256 0 .242923.0415.352383.12315h.0015c.112406.0766.233483.20662.362782.39255l.03866.0257h.03866l.03569-.0231c.139324-.18318.243022-.39517.307766-.63629.0669-.24242.10111-.49567.10111-.75687 0-.20417-.02482-.39444-.07286-.56702v-.003c-.04727-.17414-.11201-.32562-.193281-.44899-.08209-.12986-.180257-.23044-.291415-.30019-.11144-.0699-.230218-.10262-.356837-.10262zm-8.399049.008c-.184988 0-.383999.0357-.599188.10776-.212365.0666-.424441.1672-.636358.30018-.21141.12733-.417015.28421-.615544.47209-.199991.18925-.37665.40554-.529308.64655-.15313.24175-.278099.50882-.373191.80305v.003c-.09314.29848-.139762.61829-.139762.95699 0 .2082.0196.39968.06096.57215v.005c.04399.16932.102931.31441.175445.43359h.0015c.07533.11817.163284.21012.261681.27453l.0015.003c.101442.0583.209112.0872.32264.0872.193284 0 .384752-.0821.572427-.24118l.03122-.0564.01784-.0898-.0074-.0975c-.104234-.24335-.183111-.49293-.237891-.74405-.0518-.25764-.07731-.50961-.07731-.75944 0-.2129.01952-.40885.05799-.58754.04083-.1796.10432-.33356.1918-.4644.09037-.13035.208185-.23704.356837-.31557.147265-.0778.33265-.11801.553097-.11801.160895 0 .321288.0462.483216.14111.160401.094.302581.2378.429691.43102.125812.19127.228492.43887.307772.74405.0781.30063.118946.65759.118946 1.07758 0 .3853-.0081.73835-.02379 1.05707v.003c-.01149.29246-.02821.59487-.04758.90569-.328241.004-.650902.0374-.96792.11032-.335374.0717-.653598.18655-.954538.34124v-.003c-.301112.14926-.579988.34181-.837079.57472-.257544.22799-.481047.50216-.669069.82101-.185267.3197-.332686.68344-.440099 1.08785-.104985.40762-.157603.86145-.157603 1.35468 0 .38261.03614.73793.108538 1.06732l.0015.003c.07541.32251.178728.60492.310746.84411.135516.23956.297466.4284.484703.56446.188432.1369.3976.20525.622978.20525.275188 0 .538201-.11821.786528-.34894.24921-.22339.482905-.51602.698805-.87746.218343-.36569.416795-.77777.596215-1.23665.138286-.35167.251699-.70891.36427-1.06732-.000994.019-.0036.0403-.0045.059v.005c-.0032.14332-.0059.28514-.0059.42847 0 .48391.03639.91448.108539 1.28797.07183.37182.173285.68401.306284.93647v.003c.1325.2458.29083.43115.472809.55676.181686.1254.380711.18729.593241.18729.283442 0 .554272-.0982.811804-.29505.257292-.1967.495467-.48297.712186-.85694l.0074-.13085-.138275-.35407-.08178-.0308c-.294482.30491-.55626.45156-.785041.45156-.258179 0-.458607-.17622-.620004-.54648-.156637-.37229-.240864-.94281-.240864-1.71644 0-.49421.0081-.99096.02379-1.49066v-.003c.01894-.50098.04036-.98649.06245-1.45474.02214-.47478.04067-.92844.0565-1.35981v-.003c.019-.43255.02825-.83021.02825-1.19304 0-.53225-.03553-1.01302-.107051-1.43935-.06863-.42677-.179673-.79419-.334535-1.09554-.15275-.30943-.353695-.54227-.599188-.70043-.243044-.15869-.533599-.23604-.871277-.23604zm-12.038779.008c-.200117 0-.406363.0335-.618517.10006-.209233.0613-.414555.15922-.614057.29248-.199658.12799-.387682.2902-.564991.48491h-.0015c-.175259.19603-.330332.42652-.466861.69018-.134255.25991-.24122.55288-.319667.88002-.07919.33025-.118945.69123-.118945 1.08015 0 .3593.02986.69137.08921.99291v.003c.06204.293.146453.56.251273.80304v.003c.107278.2356.230822.45076.370218.64654l.0015.003c.141397.19409.291568.37269.451994.53879.159714.16537.324384.32113.493623.46439h.0015c.170772.13643.339404.27409.507006.41051v-.003c.189543.15808.370512.31439.544176.46694.174142.15025.325775.31489.454967.49005.128176.17379.22978.36245.304798.56958.07276.2009.110025.43508.110025.70813 0 .26216-.03513.49278-.105565.70042l-.0015.003c-.06853.21083-.1599.38659-.276549.5311-.117444.1455-.253234.25712-.408875.33611-.155765.0791-.317618.11801-.486191.11801-.18092 0-.363745-.043-.548636-.13341-.180399-.0897-.344116-.22622-.493624-.41051-.148273-.18275-.273861-.4184-.377652-.70812-.09909-.28499-.159912-.62639-.181392-1.02883l-.02082-.0693-.03717-.0565-.04163-.0256c-.115383.006-.229942.0335-.341968.0847-.109761.0462-.21098.11937-.301825.21808-.09282.10085-.169043.23238-.227484.39255v.003c-.05714.1664-.08475.36799-.08475.59524 0 .26121.03323.50612.101104.72865l.0015.003c.07.21282.162824.40632.278035.58241l.0015.003c.117781.16937.253639.31996.405902.45412v.003c.154804.128.318591.23697.489164.32583.170705.0889.346164.15572.526334.20013.182947.0443.360019.0641.530795.0641.340477 0 .668867-.0804.984274-.24117.319391-.15587.603786-.38724.850462-.6953.247209-.30872.445111-.68929.591753-1.13915h-.0015c.151168-.45367.227483-.97164.227483-1.54967 0-.48462-.06119-.91066-.184365-1.27258-.117618-.36082-.271864-.67923-.463888-.95443-.189992-.27228-.406537-.5132-.646766-.72351l-.0015-.003c-.237439-.213-.477526-.41908-.718133-.61576-.214692-.17433-.421196-.34657-.620004-.52083-.19366-.17248-.364157-.35648-.512953-.54905-.147607-.19635-.264746-.40438-.352377-.6286-.08541-.22362-.127866-.47226-.127866-.7543 0-.21784.03024-.42683.08921-.63115v-.003c.06244-.20465.150347-.38557.264654-.54648.116998-.16566.259681-.29984.431178-.40025.169872-.0994.365008-.14881.58432-.14881.122061 0 .245967.0216.371705.0693.127222.0471.240323.1226.341968.22579.100374.10188.18209.23265.246812.39511l.0015.005c.06452.15005.09964.33521.102591.56957-.000115.11594-.0087.24444-.02676.38485-.01793.13921-.04911.29448-.09218.46438l-.0015.0718.01338.0821.04163.0693c.150213.0733.294995.11032.434151.11032h.0015c.149265-.006.278331-.055.386574-.15137.104124-.0927.191193-.20589.257219-.34381v-.003c.06441-.1404.11064-.29061.138275-.45156.02665-.15518.04163-.30359.04163-.44129 0-.34621-.05434-.66279-.162063-.9416-.10336-.27618-.244623-.50798-.422257-.6953v.003c-.174349-.19301-.377675-.33851-.611083-.4336v.003c-.229943-.1006-.473797-.15137-.731515-.15137zm-5.368906.0257c-.360755 0-.699967.0971-1.016985.29247-.312589.19464-.601035.46336-.865329.8082-.260889.33903-.494569.7425-.700292 1.20843-.205317.45948-.380597.95666-.524848 1.49323-.140997.53638-.250272 1.10227-.3271 1.69334-.07366.59134-.110025 1.18363-.110025 1.77544 0 .72604.06435 1.41034.193287 2.04998.131951.6331.314327 1.18825.547149 1.66257.233083.47482.51186.85002.835594 1.12375.325057.27486.683993.41308 1.071997.41308.227003 0 .455858-.0532.688397-.15908.233167-.10058.461317-.25794.683937-.46951.225631-.21692.441159-.48449.646766-.80049.209322-.32231.403283-.69734.582834-1.1289.0153-.0352.02676-.0804.02676-.12828 0-.066-.01736-.12659-.04163-.17703-.02152-.0495-.0459-.0932-.07434-.13085-.0275-.0415-.05884-.0753-.09218-.1052l-.0059-.008c-.02669-.0303-.05062-.0565-.07137-.0744l-.06988.0231c-.303277.53953-.602867.92598-.895065 1.16482-.290278.2341-.572956.3515-.847488.3515-.272164 0-.523179-.10969-.758279-.33098-.235919-.22206-.441278-.53228-.617029-.93134-.175415-.40359-.315116-.88897-.417796-1.45731v-.003c-.09907-.56718-.148683-1.19633-.148683-1.88577v-.0462c.561356-.0876 1.089337-.21271 1.574542-.38229.506622-.18144.947909-.41983 1.32327-.71326.376283-.29413.67321-.65368.889118-1.0827.220911-.43242.333048-.94671.333048-1.52658 0-.39719-.05006-.75833-.150169-1.07502-.09893-.31297-.233508-.57451-.401441-.7851-.164527-.21578-.355767-.38024-.573912-.49261-.217886-.11224-.447271-.16676-.686911-.16676zm11.620983 0c-.360754 0-.699966.0971-1.016985.29247-.312589.19464-.601034.46336-.865329.8082-.260888.33903-.494569.7425-.700292 1.20843-.205317.45948-.380597.95666-.524847 1.49323-.140998.53638-.248785 1.10227-.325614 1.69334h-.0015c-.07366.59134-.110024 1.18363-.110024 1.77544 0 .72604.06435 1.41034.193286 2.04998.131952.6331.314328 1.18825.54715 1.66257.233083.47482.513346.85002.83708 1.12375.325057.27486.682507.41308 1.07051.41308.226523 0 .456362-.0536.688397-.15908.233168-.10058.461317-.25794.683937-.46951.225632-.21692.44116-.48449.646767-.80049.209321-.32231.404769-.69734.584321-1.1289h-.0015c.0153-.0352.02676-.0804.02676-.12828 0-.068-.01765-.1309-.04312-.18217-.02096-.0472-.04552-.0896-.07285-.12571l-.003-.005c-.02669-.0395-.05711-.0713-.08921-.10006l-.0059-.008c-.02669-.0303-.05062-.0565-.07137-.0744l-.06988.0231c-.303277.53953-.601379.92598-.893578 1.16482-.290788.23488-.573988.3515-.848975.3515-.272164 0-.523178-.10969-.758277-.33098-.235921-.22206-.44128-.53228-.617031-.93134-.175414-.40359-.315115-.88897-.417797-1.45731v-.003c-.09907-.56718-.148681-1.19633-.148681-1.88577v-.0462c.561927-.0876 1.088903-.21255 1.574542-.38229.506621-.18144.947908-.41983 1.32327-.71326.376282-.29413.673209-.65368.889118-1.0827.22091-.43242.333047-.94671.333047-1.52658 0-.39719-.05006-.75833-.150168-1.07502-.09877-.31247-.232402-.57468-.399955-.7851-.164527-.21578-.357253-.38024-.575399-.49261-.217885-.11224-.44727-.16676-.686911-.16676zm18.461839.008c-.35472 0-.689625.0991-1.003604.30018-.312341.19473-.599912.46822-.860869.81846-.257585.34448-.488762.75266-.694345 1.22382-.202006.46479-.374749.96948-.5189 1.51118-.141029.53653-.24896 1.09717-.322633 1.68309-.0737.58053-.110032 1.16105-.110032 1.74209 0 .43267.02316.86354.07137 1.29053v.003c.05143.42159.12649.82487.223016 1.21356v.003c.09991.38373.222157.74375.367251 1.07758h.0015c.148938.32965.320098.61871.514438.86463.195124.24132.413002.43031.652713.56445.241081.14055.503789.20783.788017.20782.522394 0 1.005789-.21681 1.445191-.65168.440209-.43567.815734-1.09078 1.127003-1.96018l.003-.008.0059-.0231.0015-.003c.000914-.002.000739-.005.0015-.008.0012-.004.0036-.007.0045-.0103.0028-.0112.0035-.0221.0045-.0308.002-.0173.003-.0309.003-.0462 0-.0675-.01857-.12507-.04312-.17446-.02115-.0426-.04565-.0847-.07285-.12573-.0277-.0418-.05855-.0777-.09218-.10776l-.006-.005c-.02698-.0307-.05043-.0564-.07137-.0744l-.07285.0282c-.274613.5708-.557746.9801-.846001 1.23409-.287244.25051-.568404.37459-.845995.37459-.262578 0-.508295-.10716-.740439-.32328-.232714-.21663-.435322-.52218-.611087-.91594-.175324-.39855-.316551-.87861-.422251-1.44192-.102373-.56743-.154633-1.19785-.154633-1.89346 0-.38838.01627-.78522.04758-1.19047.03126-.40993.07864-.80759.144219-1.19561.0686-.3874.15461-.74982.257227-1.08785.105121-.33612.230081-.63033.374673-.88515.146366-.25195.313758-.44823.502548-.59011l.0015-.003c.187558-.14616.399711-.21808.639338-.21808.164932 0 .305855.0418.423743.12316h.0015c.12279.0775.221745.18509.300337.3207h.0015c.07919.13158.137361.28486.175446.46182v.003c.04121.17272.06245.35882.06245.55933 0 .29422-.04159.58237-.126376.86977l-.003.0821.01933.0924.03271.059c.07617.0571.152098.0994.228969.12829l.003.003c.07891.0227.155683.0334.228969.0334.120087 0 .230766-.0328.333048-.0975h.0015c.10522-.0703.196312-.17199.272094-.30275.07837-.13523.139058-.29338.179899-.47465v-.003c.04418-.1886.06542-.40227.06542-.63628 0-.36062-.04971-.69054-.150164-.98522h.0015c-.09637-.29821-.231489-.5495-.40293-.75431-.168001-.21034-.367274-.37034-.597697-.48235-.230553-.11207-.478987-.16677-.743416-.16677zm-4.276088.15907c.113899 0 .217764.0312.315204.0924.09771.0613.181452.14613.251274.25658l.0015.003c.06961.1051.124039.23069.16504.38228v.003c.04016.14358.06095.29997.06095.47722 0 .2303-.02951.45332-.0892.66963-.05301.19741-.142552.37312-.260196.53366-.126771-.17668-.249211-.31599-.368728-.39767h-.0015c-.124358-.0924-.258376-.13855-.398469-.13855-.15002 0-.295754.0485-.435635.14625-.139734.0976-.267881.2382-.3836.42076-.186278.29326-.356967.6802-.514439 1.15712-.156515.46876-.300643.98856-.431178 1.55993v.003c-.127273.57103-.243024 1.17033-.347916 1.80111-.101566.62438-.19141 1.23713-.267628 1.83445-.07299.59146-.132239 1.14898-.179905 1.67539v.003c-.04156.48665-.06978.88707-.08921 1.23153l-.942644.20267-.0074-.003c.02356-.49223.04614-1.01727.06691-1.59072.02217-.61202.04345-1.23172.06245-1.86011.019-.63406.03491-1.26037.04758-1.87807.01583-.62298.02767-1.20122.03717-1.73697.01265-.54045.0206-1.02296.02379-1.4496v-.003c.0063-.42494.0089-.76162.0089-1.0083 0-.20488-.0036-.38357-.01338-.53623-.01023-.15882-.03528-.296-.07583-.41051-.0378-.11566-.09655-.20278-.169497-.254-.07498-.0582-.168074-.0847-.281009-.0847-.05617 0-.113429.007-.172471.018-.05868.0113-.122551.0291-.193287.0513-.07129.0224-.152751.0511-.242351.0898-.06834.0262-.151899.0611-.237892.0975l-.04609-.39254c.495426-.30623.909932-.53246 1.219192-.65681h.0015c.324408-.13588.545334-.20269.64528-.20269.196976 0 .321483.0956.39698.27709l.0015.003c.07999.18088.124892.46797.124892.86977 0 .0283-.0026.14571-.0089.33097-.0063.1849-.0156.42602-.02825.72609l-.0015.003c-.0095.29427-.02136.63856-.03717 1.03141-.0158.39261-.03437.81459-.0565 1.26744-.01896.44722-.04161.91753-.06691 1.40855-.0253.48567-.05183.97165-.08029 1.45731l.05353.11289.04758.0103.06542-.0795c.151482-1.06738.320854-2.06208.509979-2.98132.191985-.92326.405957-1.72086.640819-2.39634.237665-.67453.495358-1.19972.773147-1.57789.27888-.38075.580077-.56701.90845-.56701zm-8.399049.008c.326936 0 .604296.0761.829646.22321.22923.14768.410224.36104.548636.64142l.0015.003c.142198.2767.24492.61164.309259 1.01344v.003c.06774.40379.102591.86402.102591 1.38034 0 .35728-.0094.75095-.02825 1.18021-.0158.43079-.03437.88265-.0565 1.35725-.02218.47025-.04344.95691-.06245 1.45986v.003c-.01588.50429-.02379 1.0046-.02379 1.50348 0 .79921.08433 1.41454.263167 1.83959.180246.41471.426125.63372.718133.63372.241433 0 .507577-.17404.790989-.45156l.08029.20782c-.196951.32672-.406596.59005-.634871.76457-.242511.1854-.495502.2771-.762739.2771-.198896 0-.380706-.057-.547149-.17191-.166151-.11468-.309005-.28412-.429691-.508-.119798-.22788-.213735-.5138-.28101-.86207-.06711-.3474-.101103-.75491-.101103-1.22125 0-.1398.0014-.27841.0045-.41821v-.003c.0062-.13763.01726-.28409.03271-.43873l-.05947-.12059h-.02974l-.05353.0564c-.134831.46534-.292343.92776-.471322 1.38291-.175041.44768-.367788.8481-.57986 1.20329-.208186.34853-.430897.62805-.669069.84155l-.0015.003c-.232339.21629-.474014.32327-.730028.32327-.211367 0-.403042-.0646-.5754-.18986-.173152-.1258-.320735-.29722-.444559-.5157-.121166-.21953-.216786-.47732-.286956-.77739-.06685-.30412-.09962-.6328-.09962-.99292 0-.46705.04852-.8892.145708-1.26745v-.003c.101417-.38123.239595-.72133.414823-1.02371.178819-.30325.392473-.56546.640818-.78509.249281-.22584.520904-.4111.814778-.55675.294046-.15115.605972-.2632.93521-.33355.329591-.0758.665685-.11288 1.008063-.11288l.06096-.0949c.02219-.34457.03933-.67757.05204-1.00062v-.003c.01592-.32509.02379-.68319.02379-1.07246 0-.44287-.04288-.83193-.129353-1.16481-.08529-.32832-.197476-.60044-.337508-.81332-.138736-.2109-.296252-.36691-.471322-.46952-.173543-.1017-.347298-.15394-.521874-.15394-.228957 0-.425894.0422-.588781.12829-.16101.0851-.294218.20103-.399954.35406l-.0015.003c-.10186.15234-.176699.33691-.22451.54906h-.0015c-.04382.20361-.06542.42444-.06542.65938 0 .27445.02894.55115.08475.82872v.003c.05481.25219.138877.49617.237891.73635.000264.00063-.000264.002 0 .003-.16607.13503-.332753.21039-.499572.21039-.101159 0-.194436-.0266-.282495-.077h-.0015c-.08397-.0552-.156781-.13225-.220049-.23091l-.0015-.003c-.05947-.0984-.107796-.21902-.145708-.36433v-.003c-.03426-.14375-.05204-.30596-.05204-.49005 0-.30485.04127-.58811.124893-.85693v-.003c.0884-.27308.205339-.52175.349402-.74919.144836-.22865.313073-.43621.505519-.61832.19333-.18295.392008-.33557.597702-.45926h.0015c.205839-.12915.41164-.22548.617031-.28992.208897-.07.401085-.10519.576885-.10519zm-12.038779.008c.248653 0 .482317.0477.701779.14367l.0015.003c.222326.0906.414278.22445.575399.40281v.003c.164167.17313.292228.38306.385086.63116.09483.24545.141248.51701.141248.82615 0 .11351-.01021.24-.0342.37972-.023.13396-.0631.26312-.118945.38485-.0541.11221-.125676.20852-.217076.28992-.0876.078-.198261.12279-.333048.12829-.115465 0-.238466-.0379-.365757-.0949.03853-.15884.06974-.30932.08772-.44899.01978-.15357.02974-.29892.02974-.43359v-.003c-.0034-.26807-.04532-.50162-.126379-.69016-.07435-.18568-.168284-.3382-.282496-.45412-.113562-.11527-.240517-.19761-.379139-.24887-.133777-.0507-.265856-.077-.396981-.077-.230092 0-.43839.0536-.622977.16164-.182963.10712-.339977.2523-.469835.43617-.125903.17723-.223943.38165-.294391.6132l-.0015.003c-.06717.23182-.101105.47509-.101105.72609 0 .31869.04905.6128.147196.86975h.0015c.09593.24546.221437.47212.377652.67991h.0015c.155027.20064.332017.38998.530794.56701.19996.17527.407254.3508.622978.52597.239847.19606.478459.4008.71516.6132.23372.20435.443002.43824.625951.70042.181425.26001.326876.55722.437125.89542v.003c.111018.32618.166524.71267.166524 1.16738 0 .54698-.06965 1.0269-.209642 1.44704-.138191.42394-.323714.78043-.557557 1.07245-.234377.29269-.50456.51456-.811804.66451-.304468.15547-.621604.23347-.951564.23347-.164696 0-.336598-.0211-.51444-.0641-.174288-.043-.343726-.10659-.508492-.19242-.164269-.0856-.319837-.19041-.468348-.31301l-.0015-.003c-.144021-.12719-.271241-.26884-.380626-.42591-.10602-.16204-.189895-.33529-.252759-.52596v-.003c-.05827-.1919-.08772-.39916-.08772-.62859 0-.19774.0232-.35672.06691-.48491v-.003c.04908-.13401.112534-.24133.190313-.32583.07967-.0866.167558-.15119.266141-.19244h.0015c.09634-.044.193994-.0669.292904-.0744l.0059.0103c.02553.40332.08408.7635.188826 1.06476l.0015.003c.111417.31101.246997.56762.408876.76714.160644.19801.339232.34532.532281.4413.194887.0953.388819.14367.581346.14367.179559 0 .353341-.0435.520387-.12828.167171-.0848.315148-.20656.44456-.36689.129899-.16093.235235-.36152.312232-.5978v-.003c.08099-.23966.121919-.50906.121919-.80306 0-.30584-.04239-.58245-.127867-.81846-.08322-.22978-.193891-.4368-.33156-.62346-.136653-.18527-.295464-.35498-.475782-.51056-.174466-.15326-.356914-.31086-.54715-.46952-.167277-.13616-.33659-.27179-.507006-.40795l-.0015-.003c-.165589-.14028-.327022-.28984-.483217-.45156-.156057-.16157-.30299-.33776-.440099-.52596-.13222-.18572-.248101-.3886-.349402-.61064l-.0015-.003c-.09677-.22496-.174038-.47409-.231944-.74661-.05459-.27735-.08326-.58647-.08326-.92621 0-.36473.03731-.69736.110024-1.00062.07347-.30636.172104-.57849.297364-.82102.129065-.24922.276927-.46821.443073-.65423.170447-.18718.351865-.34128.544176-.4644h.0015c.192487-.12857.388566-.22331.590267-.28222h.0015c.205602-.0645.403894-.0975.596215-.0975zm-5.368906.0257c.228753 0 .446513.0529.652714.15907.20594.10609.3833.25998.535255.45926h.0015c.154446.19335.276466.43119.367245.71839.08978.28405.1353.60757.1353.97496 0 .53421-.100135.99033-.30331 1.38803v.003c-.201848.40109-.484689.74408-.848975 1.02883-.365206.28548-.796715.51887-1.296507.69787-.497489.17387-1.037309.30547-1.61766.39255l-.05501.10263v.13854c0 .70774.05141 1.35734.15463 1.94736v.003c.106155.58841.251997 1.0955.437124 1.52144.185038.42014.404225.7511.655688.98779.252283.23745.52509.35663.816264.35663.294681 0 .595327-.12375.899526-.36946.295856-.24183.591873-.64289.889118-1.15968.01141.0117.01963.0191.0342.0359l.0074.008c.02732.0236.05007.05.07137.0821l.0045.005c.02081.0269.03792.059.05353.0949l.003.005c.01251.0252.01338.0377.01338.0462l-.0015.003-.0015.003c-.174909.4204-.362887.78691-.564991 1.09811-.199489.30659-.408509.56322-.625952.77227-.21372.20287-.43207.35316-.654201.44899-.223195.10164-.442591.15137-.65866.15137-.371554 0-.710566-.12963-1.018472-.38997-.309231-.26148-.574285-.61888-.796936-1.07246-.222912-.45411-.397283-.98379-.524847-1.59585-.124254-.61644-.187339-1.27589-.187339-1.98071 0-.57604.03683-1.15273.108537-1.72925v-.003c.07507-.57675.180865-1.12735.31818-1.64973.140583-.52291.310199-1.00764.509979-1.45474.199374-.45154.426177-.84014.67799-1.16738.254735-.33236.531233-.59231.832619-.77996.303286-.18692.628675-.27966.976841-.27966zm11.620983 0c.228753 0 .446514.0529.652714.15907.20594.10609.3833.25998.535255.45926h.0015c.154445.19335.276465.43119.367245.71839.08978.28405.1353.60757.1353.97496 0 .53421-.100136.99033-.303311 1.38803v.003c-.201847.40109-.484689.74408-.848975 1.02883-.365206.28548-.796714.51887-1.296506.69787-.49749.17387-1.035823.30547-1.616174.39255l-.0565.10263v.13854c0 .70774.05141 1.35734.154629 1.94736v.003c.106156.58841.251998 1.0955.437125 1.52144.185038.42014.404225.7511.655688.98779.252282.23745.52509.35663.816263.35663.294682 0 .595327-.12375.899527-.36946.295855-.24183.591873-.64289.889118-1.15968.01141.0117.01962.0191.0342.0359l.0074.008c.02732.0236.05156.05.07285.0821l.003.005c.02081.0269.03941.059.05501.0949l.0015.005c.01251.0252.01487.0377.01487.0462 0-.004.00072-.006-.003.003v.003c-.174908.4204-.364373.78691-.566478 1.09811-.199489.30659-.407021.56322-.624465.77227-.214124.20349-.43312.35297-.655687.44899-.223196.10164-.442591.15137-.658661.15137-.371554 0-.710566-.12963-1.018472-.38997-.30923-.26148-.574284-.61888-.796935-1.07246-.222912-.45411-.397284-.98379-.524847-1.59585-.124254-.61644-.18734-1.27589-.18734-1.98071 0-.57604.03683-1.15273.108538-1.72925v-.003c.07506-.57675.180865-1.12735.318179-1.64973.140584-.52291.3102-1.00764.50998-1.45474h.0015c.199375-.45154.424691-.84014.676504-1.16738.254384-.3319.531713-.59236.832619-.77996.303285-.18692.628675-.27966.97684-.27966zm18.461839.008c.254608 0 .491845.0527.710705.15907.218974.10644.405724.25776.560532.45156v.003c.157694.18839.280057.41526.367243.68503v.003c.08943.26236.133813.55253.133813.88004 0 .21288-.01874.39893-.0565.55931l-.0015.003c-.03511.15647-.08475.28991-.151657.40537-.06348.10954-.139454.19322-.230461.254-.08761.0554-.183637.0847-.291415.0847-.06596 0-.136637-.0124-.209641-.0334-.06025-.0229-.120598-.0595-.181391-.10263l-.003-.0154c.08198-.29597.130844-.59919.130844-.90824 0-.2246-.02433-.43829-.07137-.63629-.04422-.20393-.112483-.38466-.203696-.53622-.09188-.15807-.206231-.2809-.341969-.3669h-.0015c-.135015-.0928-.290539-.13855-.46686-.13855-.254091 0-.485009.079-.689885.23861-.202538.1525-.382909.3657-.53972.63629-.152897.26946-.285408.58191-.395493.93391-.10627.35008-.193997.72474-.264656 1.12376l-.0015.003c-.06734.39841-.116639.8062-.14868 1.22639-.03198.41392-.04758.82066-.04758 1.2187 0 .71339.05258 1.36725.159086 1.95761.109354.58275.256473 1.08575.441587 1.50604.18503.41452.402885.73866.651228.96984.248907.23171.515162.34893.796939.34893.298396 0 .5996-.13483.90101-.39768.292192-.25747.571495-.68139.841541-1.2264.01099.0113.01888.0174.03271.0333l.0074.008c.02733.0236.05156.05.07286.0821.02344.0354.04264.0713.05947.1052.01344.0271.01338.0405.01338.0385 0 .003.000053.001 0 .003-.000061.001-.000213.004 0 .003l-.0074.0205c-.302065.84109-.663226 1.46835-1.082401 1.8832-.421437.41709-.881225.62346-1.38423.62346-.272787 0-.522044-.065-.749361-.19755l-.0015-.003c-.22868-.12799-.433861-.3053-.618517-.53366-.185441-.23467-.348425-.5088-.49065-.82358-.139408-.32103-.257729-.66472-.35386-1.03397-.09336-.37591-.164263-.76657-.21411-1.17509-.04673-.41403-.06987-.83019-.06987-1.24948 0-.56582.03516-1.13214.107047-1.69848.07191-.57186.177737-1.11908.315212-1.64203.140511-.52746.309159-1.01835.505516-1.47013.199517-.45726.423256-.85263.672041-1.18534.251403-.33742.527007-.59758.828158-.7851l.0015-.003c.300009-.19214.618951-.28736.960486-.28736zm-30.533329.74148c-.21284 0-.408309.0658-.58432.19755-.174123.13041-.330422.30956-.468348.53624-.137317.22003-.257367.47779-.361298.77483-.103233.28948-.192087.59841-.26614.92621-.07058.32663-.12906.66263-.173958 1.00574-.04481.34241-.0759.6765-.09516 1.00319l.06393.11545c.451673-.0549.856837-.14988 1.214732-.28223.361103-.13785.666386-.31092.915881-.5234.252861-.21817.449091-.47756.585807-.78253v-.003c.137252-.31195.206667-.67241.206667-1.06988 0-.26332-.02668-.5128-.08029-.74406-.04985-.22807-.122236-.42769-.215588-.59524-.09108-.17463-.2011-.31208-.328588-.41051-.128198-.099-.266302-.1488-.413336-.1488zm11.620984 0c-.21284 0-.40831.0658-.58432.19755-.174124.13041-.330423.30956-.468348.53624-.137317.22003-.257367.47779-.361298.77483-.103233.28948-.192087.59841-.266141.92621-.07058.32663-.129059.66263-.173958 1.00574-.0448.34241-.0759.6765-.09516 1.00319l.06393.11545c.451672-.0549.856836-.14988 1.214731-.28223.361103-.13785.666386-.31092.915881-.5234.252861-.21817.449092-.47756.585807-.78253v-.003c.137253-.31195.206668-.67241.206668-1.06988 0-.26332-.02668-.5128-.08029-.74406-.04985-.22807-.120751-.42769-.214102-.59524-.09108-.17463-.202587-.31208-.330074-.41051-.128199-.099-.266302-.1488-.413336-.1488zm-11.620984.20782c.131471 0 .251943.0441.364271.13085.113039.0873.208626.20615.288443.35919l.0015.003c.08272.14784.145495.32486.190313.53109h.0015c.04767.20566.07137.42795.07137.66709 0 .35616-.06062.66628-.182879.94416-.122799.27392-.301838.51571-.542689.72352-.237888.20259-.534972.3728-.889119.50801-.328058.12118-.707611.20378-1.119575.25912.01912-.27713.04384-.55675.08178-.84667.04372-.33408.09934-.65973.168011-.97752.07153-.31662.156418-.61437.255733-.89286.09862-.28185.211953-.52526.340482-.73121h.0015c.127918-.21022.271316-.37692.432664-.49775.15946-.11941.338156-.17959.536742-.17959zm11.620984 0c.13147 0 .251943.0441.364271.13085.113038.0873.208625.20615.288443.35919l.0015.003c.08272.14784.146982.32486.1918.53109.04767.20566.07137.42795.07137.66709 0 .35616-.06062.66628-.182878.94416-.122787.27334-.302251.51606-.54269.72352-.237887.20259-.534972.3728-.889117.50801-.32806.12118-.707613.20378-1.119576.25912.01912-.27724.04382-.55663.08178-.84667.04372-.33408.09934-.65973.16801-.97752.07153-.31662.156419-.61437.255734-.89286.09862-.28185.21344-.52526.341969-.73121.127918-.21022.271316-.37692.432664-.49775.15946-.11941.338155-.17959.536742-.17959zm6.910738 5.02616c-.235835.011-.470578.0381-.703266.0821-.233112.0387-.456165.10399-.667582.19242-.209179.0889-.404772.20646-.585806.3515-.182588.14629-.34093.33027-.475783.55162-.132152.21704-.238103.47673-.313719.7774-.07679.29959-.114485.64556-.114485 1.03397 0 .22011.01382.4319.04014.63628v.003c.02997.20111.07572.38327.136788.54136l.0015.003c.06494.15923.146135.28741.242351.38229l.0015.003c.101849.0909.221204.13341.35535.13341.151816 0 .30711-.0601.465374-.1796.156988-.11851.310528-.2836.459428-.49005.152475-.20711.297269-.45263.432664-.73633.138498-.28903.262382-.60316.371705-.94161.109265-.33827.199857-.69345.270601-1.06476v-.003c.07398-.378.121666-.76491.144222-1.15969zm-.07434.21808c-.02417.3364-.05993.66906-.123406.99291h-.0015c-.06844.3597-.154471.70409-.260194 1.03141-.105884.32781-.226132.62929-.35981.90825-.130449.27334-.268317.50856-.413335.70555v.003c-.141935.197-.286199.34867-.432665.45925-.145559.10989-.284779.16421-.417796.16421-.117793 0-.21615-.0389-.297364-.11034l-.003-.003c-.07976-.0796-.146038-.18405-.200721-.31814-.05211-.1356-.09213-.29311-.118945-.47208v-.003c-.02411-.18807-.03568-.38255-.03568-.58753 0-.36524.03529-.68092.104078-.9493.0698-.27755.164853-.51552.285469-.71326.124662-.20463.2712-.37544.443072-.51313.173425-.13894.361257-.25019.563505-.33611.205882-.0861.422827-.1495.651227-.18729h.0015c.203795-.0385.409237-.059.615543-.0718zm13.671311 3.32769l-.01041.0256c.000799-.003.0013-.006.003-.0103.0017-.005.0078-.0161.0074-.0154z" color="#000" font-family="Gabriola" font-size="25.54300499" font-weight="400" letter-spacing="0" opacity=".713" overflow="visible" style="line-height:1.25;-inkscape-font-specification:'Gabriola, Normal';font-variant-ligatures:normal;font-variant-position:normal;font-variant-caps:normal;font-variant-numeric:normal;font-variant-alternates:normal;font-feature-settings:normal;text-indent:0;text-align:start;text-decoration-line:none;text-decoration-style:solid;text-decoration-color:#000;text-transform:none;text-orientation:mixed;shape-padding:0;isolation:auto;mix-blend-mode:normal" white-space="normal" word-spacing="0" class="MjiZNPpX_0"></path>
<style data-made-with="vivus-instant">.MjiZNPpX_0{stroke-dasharray:1351 1353;stroke-dashoffset:1352;animation:MjiZNPpX_draw 2000ms linear 0ms forwards;}@keyframes MjiZNPpX_draw{100%{stroke-dashoffset:0;}}@keyframes MjiZNPpX_fade{0%{stroke-opacity:1;}94.44444444444444%{stroke-opacity:1;}100%{stroke-opacity:0;}}</style></svg>
