<svg xmlns="http://www.w3.org/2000/svg" viewBox="0 0 100 100">
  <path fill="none" stroke="#fff" stroke-linecap="square" stroke-linejoin="round" stroke-miterlimit="10" stroke-width=".13229168" d="M84.886719 31.08203c-.103607 0-.204559.0182-.300781.0527-.09943.0358-.192318.0928-.273438.17187-.08368.0791-.14908.18716-.199219.31641-.05479.13406-.0821.2909-.08594.46289-.02572.93823-.0531 1.92264-.08203 2.95117-.02895 1.0291-.05963 2.08103-.0918 3.1582v.006c-.02892 1.06985-.05967 2.15396-.0918 3.25391-.03216 1.10139-.06548 2.19398-.09766 3.27734-.02895 1.08298-.05964 2.14842-.0918 3.19531v.006c-.02893 1.04036-.057 2.03984-.08594 3.00196v.002c-.02573.96275-.05044 1.87209-.07617 2.73242v.002c-.02252.85455-.04514 1.63552-.06445 2.3457l.0078.0391.05859.12109.06641.0469.07813.01h.0196l.01953-.002 1.027344-.23437.05664-.0449.05469-.10742.0078-.0351c.0255-.8826.0867-1.76558.185546-2.64844.09902-.88436.225099-1.72966.375-2.53516.150023-.81208.318154-1.56153.50586-2.25195.187923-.69719.381504-1.29762.580078-1.79883.20144-.50639.401759-.89951.595703-1.17773l.002-.002c.194375-.27298.362208-.38085.482422-.38086.09093.00001.161625.0264.232422.0898.07028.0629.138529.16553.199219.3125.000441.001.0015.00088.002.002v.004c.118139.28268.1875.74915.1875 1.39648 0 .26881-.01084.63148-.0332 1.08594v.002c-.01927.45085-.04263.95062-.06836 1.49805-.02253.54803-.04387 1.12059-.06641 1.7168-.0194.59892-.0293 1.18098-.0293 1.74414 0 .46624.0066.90368.01953 1.31054v.004c.01645.41204.04901.77429.09961 1.08984l.0078.0234.002.004c.05496.30864.131704.5669.244141.76367.123257.21571.311315.33594.525391.33594.17358 0 .359187-.057.5625-.15821.201028-.0942.402518-.21804.601562-.37304.201688-.15465.392692-.32648.574219-.51172.182153-.18587.335651-.36881.458984-.55469l.01367-.0352.01758-.1289v-.0273l-.08984-.47071-.03125-.0508-.08398-.0644-.105469.002c-.176307.15046-.350219.26867-.519531.35352-.165332.0769-.319882.11328-.466797.11328-.09373 0-.163525-.0239-.21875-.0645-.000142-.00012-.0018.00013-.002 0-.04484-.0386-.09152-.11711-.130859-.25195v-.002c-.0409-.14843-.07801-.36667-.09961-.64649l.002-.002c-.01863-.28476-.02734-.66162-.02734-1.12695 0-.26082.0041-.57334.01367-.9375v-.002c.01283-.36605.02692-.75187.04297-1.16015.01603-.40799.0335-.82219.05273-1.24219v-.002c.02253-.4216.04053-.82146.05664-1.20117.01609-.38521.03131-.73308.04102-1.04102v-.002c.0129-.31409.01953-.56083.01953-.74805 0-.6088-.03989-1.13853-.121094-1.58789-.08027-.44433-.190448-.81465-.333984-1.10938-.137666-.28973-.300053-.50981-.490234-.65429-.000364-.00028.000364-.002 0-.002L88.5 42.70117c-.17873-.13396-.369572-.21484-.568359-.21484-.30442 0-.607983.16923-.910157.48047-.307782.31701-.603231.81525-.898437 1.49023-.292961.67124-.579254 1.53794-.861328 2.60547v.004c-.168017.6435-.32164 1.50682-.476563 2.33789.0096-.25619.02097-.52998.0293-.76758.02896-.74046.05629-1.44867.08203-2.12891v-.002c.02574-.68602.0524-1.35957.07813-2.02148.02569-.66089.05118-1.33845.08008-2.0293v-.006c.03208-.69617.06628-1.4237.101562-2.17969.0386-.75828.07996-1.57265.125-2.44531.04824-.87851.102247-1.8265.160156-2.84961.05789-1.02884.123286-2.15926.197266-3.38672l-.0039-.0293-.0332-.11523-.02344-.0391c-.228387-.20717-.459673-.32227-.691406-.32227zm0 .16797c.171862 0 .360922.091.564453.27148l.01758.0625c-.192958-.16172-.38442-.27343-.582031-.27343-.09712 0-.189789.0192-.277344.0508-.08536.0307-.161158.0811-.228516.14453.01667-.0219.0292-.0595.04687-.0762l.002-.002c.0652-.064.135465-.10687.21289-.13476.0791-.0284.160247-.043.244141-.043zm0 .22852c.12803 0 .284673.0885.453125.2246-.06997 1.16415-.132193 2.25142-.1875 3.23438-.05791 1.0233-.111885 1.97451-.160156 2.85352-.04505.87279-.0864 1.69077-.125 2.44921-.0354.75844-.06939 1.48732-.101563 2.18555v.002c-.02896.69248-.05628 1.37088-.08203 2.03321-.02575.66223-.05238 1.3352-.07813 2.02148-.02567.67815-.05122 1.38508-.08008 2.12305-.00008.002.000079.004 0 .006l-.002.004c-.02573.73402-.05378 1.52272-.08594 2.3711l.0059.0371.05273.12109.05078.0469.0293.01.08789-.0254.07031-.0781.01953-.043c.246728-1.51662.507431-2.80127.78125-3.84961.277727-1.0511.558205-1.8963.837891-2.53711.283886-.64911.563334-1.11007.828125-1.38281.270531-.27863.513658-.40235.730469-.40235.151691 0 .296759.0543.445312.17188h.002c.143109.10812.275746.28405.394532.5332.000489.001.0015.00092.002.002v.004c.120299.24702.220782.57403.294921.98437.07324.40532.111329.90152.111329 1.48438 0 .17329-.0067.41389-.01953.72461v.008c-.0097.30469-.02307.64819-.03906 1.03125-.01604.37802-.03613.77698-.05859 1.19727v.008c-.01927.42061-.03668.8355-.05273 1.24414-.01609.4096-.03009.7964-.04297 1.16406v.008c-.0096.36701-.01563.68368-.01563.95117 0 .47127.01149.85594.03125 1.16015v.004c.000033.00051-.000033.001 0 .002v.004c.02339.30627.05799.55587.113281.75586l.002.004c.0561.19589.135219.34888.25.44336l.0039.006c.105068.0786.232978.11524.36914.11524.187008 0 .378732-.0462.572266-.13672l.0039-.008c.133098-.067.264089-.16385.394531-.26367l.02148.11328c-.101288.14404-.215392.2905-.363282.4414-.172324.17584-.354037.33803-.544921.48438-.186039.14502-.371274.25991-.554688.3457l-.002.002c-.181158.08878-.335727.12736-.459045.12736-.136135 0-.220506-.0539-.296875-.1875-.08204-.1436-.149433-.35026-.197266-.62305l-.002-.008c-.000135-.00078.000134-.001 0-.002v-.002c-.04573-.28593-.07611-.62623-.0918-1.01953-.01276-.39969-.01953-.82843-.01953-1.28906 0-.55539.0083-1.13084.02734-1.72266v-.006c.02239-.59201.04596-1.16257.06836-1.70703v-.006c.02556-.5441.04913-1.04288.06836-1.49218v-.008c.02239-.45658.0332-.8243.0332-1.10742 0-.68867-.06823-1.2227-.226562-1.60156-.07756-.18828-.172444-.33719-.287109-.44141-.114666-.10421-.252034-.16211-.398438-.16211-.2461 0-.472656.18793-.695312.50196-.217444.31144-.428707.73192-.638672 1.25976-.206828.52204-.405956 1.13844-.597657 1.84961-.191922.70592-.365165 1.47181-.517578 2.29688-.152533.81962-.276501 1.67509-.376953 2.57226-.09465.8453-.151326 1.69013-.179687 2.53516l-.820313.1875c.01768-.65495.03624-1.35296.05664-2.12695v-.006c.0257-.85973.05242-1.77081.07813-2.73243.02896-.9632.05894-1.96434.08789-3.00585.03216-1.04681.0609-2.11259.08984-3.19532v-.006c.03209-1.08123.06553-2.17222.09766-3.27148.03216-1.10162.06283-2.18816.0918-3.25977.03217-1.07758.06089-2.13276.08984-3.16211.02896-1.02923.05824-2.0121.08398-2.95117.0025-.11525.01711-.19951.04492-.26953l.002-.002c.000198-.00049-.000198-.001 0-.002l.002-.008c.0332-.0859.07125-.14441.115234-.18554l.0039-.002c.05369-.0526.112584-.0892.179688-.11328.0717-.0258.144961-.041.220703-.041zm-63.94336 2.88867c-.325892 0-.646631.0721-.957031.21093-.306742.13288-.596411.33108-.867187.59376-.267669.25684-.514795.57123-.740235.94335l-.002.01c-.221869.37256-.416591.79268-.578125 1.26758l-.002.01c-.158487.47063-.280499.98573-.369141 1.55078-.08951.56437-.134765 1.1746-.134765 1.82618 0 .52422.03466 1.00531.101562 1.44336.06916.43123.161203.8283.277344 1.18945.000585.002.0014.004.002.006v.004c.119847.36122.262059.69213.425781.99218h.002c.161455.28972.335455.5615.523438.81446.186679.25121.380715.48816.583984.70898h.002c.203234.21725.406019.42943.609374.63477.192544.19811.38048.39585.566407.59375l.0059.002c.181347.18733.353084.3873.515625.59765.000567.00074.0014.001.002.002v.004c.164082.2027.315218.41794.451172.64844l.002.004c.000468.00079.0015.001.002.002l.002.004c.137536.22869.253502.4792.351562.7539.000306.00086.0016.001.002.002v.006c.100286.26721.179005.56261.234375.89062l.002.002c.05761.31766.08594.67385.08594 1.06836 0 .62419-.0618 1.16766-.183594 1.63477-.123208.46677-.288421.85081-.494141 1.16211v.004l-.002.002c-.202403.31011-.435722.54052-.701172.69726-.268917.15263-.549275.23047-.847656.23047-.301562 0-.570148-.0631-.808594-.18554-.230746-.12601-.429506-.32632-.599609-.60547-.165316-.27663-.297415-.63901-.392578-1.0918v-.002c-.09135-.45679-.138672-1.02038-.138672-1.69141 0-.13011.000628-.26081.0039-.39062.0032-.12754.01012-.26146.01953-.40235l-.0078-.041-.05664-.12696-.07031-.0488-.486328-.0449-.08008.0391-.06445.10937-.01172.0391c-.03219 1.03595-.05615 1.92991-.07227 2.6836v.002c-.01288.75325-.01953 1.33376-.01953 1.74023 0 .24635.08199.47032.216797.66797l.002.006c.136615.18834.316712.34873.537109.48828l.0059.002c.223166.13865.477616.24956.765625.33008l.0039-.004c.289937.0866.5986.13476.925781.13476.255617 0 .528815-.0498.820313-.14257.297265-.0884.591748-.23584.884765-.44141.294754-.20677.576006-.47893.84375-.8125.274503-.33819.515914-.75152.72461-1.23437.000389-.00091.0016-.001.002-.002h.002c.210395-.49357.374171-1.06726.496094-1.7207.126348-.65936.189453-1.40864.189453-2.24805 0-.50713-.03658-.9713-.105469-1.39453v-.0157c-.06481-.41142-.159066-.78858-.275391-1.13282v-.004l-.0059-.0254c-.116901-.3558-.257594-.67632-.421875-.96485-.158045-.28933-.331469-.55379-.519531-.79492-.000872-.001-.0011-.003-.002-.004h-.002c-.185904-.24374-.380205-.47368-.585938-.6875-.200632-.21189-.403288-.4191-.607422-.61914h.002c-.19612-.19849-.391386-.39362-.583984-.59179-.187436-.19285-.364412-.39543-.533203-.60547l-.0059-.008c-.16904-.21686-.327134-.44421-.470703-.6836-.140904-.23495-.262507-.49763-.367187-.78515-.101343-.28726-.181471-.60005-.240235-.94141-.05804-.34291-.08789-.72687-.08789-1.15234 0-.52216.05154-.99717.152343-1.42579.101532-.43169.240409-.79568.416016-1.10156v-.002c.175758-.3118.381836-.54766.617188-.71484v-.002c.237813-.1724.488701-.25781.759765-.25781.275285 0 .51936.0716.740235.21484l.002.002c.222354.13684.412165.34616.570312.63086v.002c.160214.27752.287929.63079.376953 1.0664.000145.00071-.000144.001 0 .002v.004c.09149.42791.138672.93007.138672 1.50977 0 .19353-.0061.3965-.01563.60937l.0078.0391.05859.125.06836.0469.486328.0469.08008-.041.06641-.10742.01172-.041c.01289-.43986.02354-.85637.0332-1.24804.0097-.3974.01629-.76162.01953-1.09375v-.004c.0064-.33613.0124-.63163.01563-.89062.0033-.26572.0039-.48975.0039-.66602 0-.20434-.04463-.39848-.125-.57031-.07687-.16435-.177828-.30998-.300782-.44141-.122007-.13041-.261241-.24406-.417968-.33984l-.0078-.002c-.149407-.0985-.305834-.18213-.470703-.25-.166797-.0686-.333554-.12059-.501953-.15234h-.002c-.0055-.001-.01019-.00077-.01563-.002h-.002c-.159552-.0346-.313456-.0566-.458985-.0566zm8.875 0c-.631782 0-1.216055.16665-1.74414.49804-.524001.32286-.994132.77126-1.410157 1.34571-.414904.56675-.778506 1.23362-1.089843 2l-.002.01c-.306036.76223-.560666 1.58062-.765625 2.45703-.201968.87757-.356838 1.7982-.460938 2.75977-.100792.95494-.150391 1.90982-.150391 2.85938.000001.98554.05186 1.92343.15625 2.81445.107506.8837.258819 1.70604.455079 2.46484.196229.75867.433648 1.44401.71289 2.0586.27929.60855.593664 1.13073.941407 1.56445.347788.43375.726258.76993 1.134765 1.00195.413374.23893.849884.35742 1.304688.35742.341525 0 .683372-.061 1.023437-.18554.348062-.12011.688241-.32217 1.023438-.60157.335933-.28001.670051-.64582.998046-1.09375.32929-.44969.65167-1.00065.970704-1.6582v-.002l.0039-.008.0039-.008c.02958-.0761.05664-.15322.05664-.2539 0-.0962-.0222-.1855-.05469-.26367-.02456-.0662-.05554-.12696-.0918-.17969-.02835-.0461-.06126-.0868-.0957-.125l-.002-.004-.01172-.0176c-.000353-.00039-.0016.0004-.002 0-.0342-.0382-.06598-.0698-.09375-.0957l-.07617-.0215-.06836.0176-.05273.0391c-.266214.4506-.533745.8369-.800782 1.16015-.263745.31721-.524257.58001-.78125.78907-.000318.00025-.0016-.00026-.002 0-.257808.20338-.511427.35412-.757812.45117-.245409.0918-.481574.13672-.710938.13672-.328142 0-.639386-.0943-.939453-.28711-.297021-.19276-.576749-.474-.839844-.84375l-.002-.002c-.260334-.37727-.497507-.83868-.710937-1.38476-.213657-.54664-.396862-1.16641-.548828-1.85938-.15186-.6925-.268875-1.45035-.351563-2.27734-.08256-.82579-.125-1.70837-.125-2.64453 0-.79254.03203-1.5734.0957-2.34766.06681-.77375.164788-1.51027.294922-2.21094.133091-.69951.299287-1.34336.498047-1.93359.201123-.59377.435627-1.10255.703125-1.52734.266456-.42892.567009-.75954.900391-.99414.333118-.23795.699341-.35743 1.107422-.35743.236148 0 .467697.0439.695312.13477l.002.004c.227765.0853.439676.20999.640625.38086.200614.17058.385974.38269.554688.63476.000551.00082.0014.001.002.002v.004c.171128.25154.318511.53819.441406.86523.11622.32613.193685.66639.236328 1.02539l.002.006c.04648.36006.07305.74082.07617 1.14454 0 .0795-.0047.15561-.0078.23046v.012c0 .0679-.000748.14372-.0039.22461l.0078.0391.06055.12109.06836.0469.421875.0293.07813-.043.0625-.10937.01172-.0391c.02574-.93909.04639-1.73977.0625-2.40234.01612-.66358.02539-1.20193.02539-1.62109 0-.27182-.09642-.53163-.25586-.79102-.160527-.26113-.377863-.49808-.648437-.7168-.272328-.22015-.593612-.40454-.962891-.55273h-.002c-.371986-.1502-.776639-.22656-1.210938-.22656zm-8.875.16797c.136057 0 .283583.0193.441407.0547h.0059c.155991.0294.311418.0779.46875.14258.157829.065.308854.14377.451172.23828l.0039.002c.144659.0884.273661.19178.384766.31054.02139.0229.03291.0523.05273.0762-.11158-.11781-.242366-.22101-.388672-.31055-.000735-.00049-.0012-.001-.002-.002h-.0039c-.145013-.096-.297034-.17949-.458984-.2461-.16129-.0663-.322887-.11373-.484376-.14453l-.0059-.004c-.164698-.037-.319941-.0527-.464844-.0527-.316099 0-.626439.0664-.927734.20117-.297988.12865-.577427.31968-.839844.57422l-.002.004c-.236405.22697-.449932.51181-.652344.83203.000973-.002.000979-.004.002-.006l.002-.006c.21847-.35977.456375-.66413.710937-.9082.25843-.2507.531419-.4345.81836-.5586v-.002c.290978-.13014.587463-.19531.888671-.19531zm8.875 0c.415451 0 .796912.0727 1.148438.21484.356711.14299.663879.31877.921875.52734.258492.20895.462313.43143.611328.67383.005.008.003.0154.0078.0234-.143483-.21616-.321053-.42555-.560546-.61914-.2633-.21286-.579437-.39318-.94336-.53906-.363161-.14701-.758517-.2168-1.185547-.2168-.620149 0-1.190941.16174-1.705078.48437-.50161.30885-.947184.74342-1.345703 1.28516.01196-.0166.0192-.0421.03125-.0586h.002c.405364-.55973.859636-.99264 1.363281-1.30274.502651-.31543 1.052094-.47265 1.654297-.47265zm11.359375.11132c-.354186 0-.722283.0308-1.107422.0918-.380146.0547-.75883.12765-1.138671.21875-.375505.0909-.744317.19182-1.103516.30078-.354999.10869-.681813.21556-.982422.31836l-.05078.0488-.05078.12695-.0059.0371.05859.80274.01367.043.07031.0976.08984.0332c.324905-.0884.589114-.1289.785156-.1289.140698 0 .249133.0236.324219.0644.07604.0413.128765.0997.167969.18164l.002.004c.0436.0861.07796.20528.09766.36328.02047.16412.03125.36735.03125.61133 0 1.50385-.0067 2.97453-.01953 4.41211-.01287 1.43184-.03023 2.88163-.05273 4.34961v.004c-.01928 1.4612-.04597 2.96626-.07813 4.51172-.03216 1.54668-.06686 3.18094-.105469 4.90821l.0078.0371.05469.11914.05664.0469.08789.0195.01953.002h.01367l.01953-.002 1.142579-.27148.05664-.0469.05273-.10937.0098-.0352c.02252-1.37228.04388-2.74666.06641-4.125.02253-1.38444.04514-2.7328.06445-4.03906.0193-1.312.03733-2.56414.05664-3.76172.01931-1.20403.03596-2.30891.04883-3.31445.01609-1.01147.02745-1.90482.03711-2.68164.0117-.70596.01906-1.24564.02539-1.69141.134734-.0292.265302-.0581.378907-.0762.143852-.0229.298626-.0332.460937-.0332.746901 0 1.281544.32445 1.654297.98243.372024.65668.568359 1.66997.568359 3.0625 0 .72564-.05238 1.37868-.158203 1.96093-.104947.57169-.273591 1.05905-.505859 1.47071-.22757.4087-.52625.73364-.900391.97461-.371237.23908-.832704.38285-1.386718.42382l-.06445.041-.05859.0957-.01367.0371-.0078.11914v.0137l.0059.0703.0039.0176c.421901 1.42192.806725 2.67588 1.158203 3.76171.351298 1.08531.67151 2.02657.958984 2.82422l.002.002c.290551.79117.550539 1.45331.78125 1.98828.228694.52424.431289.94234.609376 1.25781.00078.001.0012.004.002.006v.002c.106066.19229.208169.3611.302734.50781l.0039.0117c.09876.14654.200539.26636.302735.36524.1014.0982.206918.17507.318359.22461.000585.00029.0014-.00029.002 0 .000779.00034.0012.002.002.002.111482.0549.228972.084.351563.084.24464 0 .524075-.0991.849609-.27929.327046-.1748.693656-.43751 1.107422-.79102l.02734-.043.0332-.14257.002-.0332-.136719-.74218-.02539-.0469-.08008-.0703-.103516-.006c-.132536.0922-.252338.15943-.357422.20312-.100267.0417-.207422.0606-.322266.0606-.103958 0-.199162-.0192-.292968-.0606-.09166-.0403-.18793-.10901-.28711-.20703l-.0059-.002c-.09528-.098-.196998-.23142-.306641-.39649h-.002c-.000257-.0004.000257-.002 0-.002-.111002-.1733-.23215-.38718-.361328-.64062-.164536-.31374-.341026-.68541-.529297-1.11524-.187897-.43494-.395535-.95702-.623047-1.5625-.227333-.61098-.47714-1.32012-.75-2.13086-.2562-.76122-.544845-1.65926-.855469-2.65039.401241-.21279.782544-.47095 1.117188-.81445.375119-.38505.69471-.84886.957031-1.38867l.002-.002c.265123-.53989.467319-1.15114.609375-1.83007.146079-.68941.21875-1.44556.21875-2.26368 0-.88586-.08342-1.6385-.259765-2.2539-.174268-.60815-.417964-1.10379-.728516-1.48047-.308102-.3796-.672402-.65042-1.091797-.8086-.413373-.16215-.861-.24195-1.339843-.24218h-.002zm-20.234375.1211c.132634 0 .274939.0145.427735.0488l.0039.002c.152845.0286.305691.0737.458984.13672.15323.063.297674.14071.435547.23242l.0059.002c.138883.0848.258617.18121.361328.29102.1024.10945.182184.22745.240234.35156.05525.11812.07813.22791.07813.34961 0 .17281-.00061.39425-.0039.6582-.0033.25783-.0091.55206-.01563.88868v.006c-.0033.32877-.01.69056-.01953 1.08593-.008.32699-.01703.67954-.02734 1.04102l-.199219-.0176c.0052-.14859.0098-.29895.0098-.43945 0-.61061-.04934-1.15092-.150391-1.625l.002-.002c-.00019-.00093-.0018-.001-.002-.002-.09738-.47628-.237784-.8783-.423828-1.20117l-.002-.002c-.18186-.32602-.405124-.57667-.669922-.74024-.261829-.1698-.554638-.2539-.871094-.25391-.320712 0-.625206.10371-.902343.30469-.272588.19394-.507878.46853-.705079.81836-.196821.34365-.352391.75284-.46289 1.22266-.111527.47419-.166016.99341-.166016 1.55469 0 .45334.03149.87064.0957 1.25.06347.36872.150662.71059.261719 1.02539v.002c.113881.31332.249607.59948.404297.85742.15175.25302.316178.49453.49414.72266l.002.002c.176954.22069.36424.43083.560546.63281.193353.19896.38747.39878.583985.59766h.002c.201213.19718.401276.40187.599609.61133v.002c.198691.2065.388777.42635.56836.66211.17754.22726.342428.47763.492187.75195v.002l.002.004c.150507.26433.27843.56071.386719.89063v.002c.110635.32195.197593.68264.259766 1.07813h.002v.002c.0644.39076.09766.8271.09766 1.3125 0 .80981-.06153 1.52203-.179687 2.13867v.004c-.116131.62239-.271736 1.1596-.466797 1.61718-.196378.45487-.421116.83711-.673828 1.14844-.252901.31542-.514439.56789-.785157.75781-.273301.19174-.545562.32818-.814453.40821h-.002c-.273571.0873-.52307.1289-.75.1289-.308303 0-.597518-.0405-.865234-.12109h-.002c-.269988-.0754-.504958-.17811-.705079-.30273h-.0039c-.194143-.12374-.344587-.26376-.451172-.41016-.102074-.1508-.140625-.27929-.140625-.39258 0-.40002.0086-.97704.02148-1.72851.01485-.69457.03771-1.53638.06641-2.47461l.191406.0176c-.004.0749-.008.15076-.0098.22266-.0033.13499-.0039.27157-.0039.40625 0 .70012.04705 1.3008.148438 1.80664l.0078.0215.002.002c.10375.48555.246116.89321.4375 1.21289l.002.002c.196451.3224.433902.56199.710937.71289l.0039.002c.0035.002.0082.00019.01172.002l.0098.004c.0047.002.01086.002.01563.004.267195.13066.559649.20313.880859.20313.338419 0 .660835-.0872.964844-.25977h.002c.305735-.17994.57335-.44991.800781-.79883.23139-.35054.416748-.7813.550781-1.28906.13557-.51994.201172-1.11532.201172-1.7793 0-.41903-.03269-.80553-.0957-1.1582v-.0137c-.06021-.3559-.146811-.67998-.257812-.97656-.000208-.00056.000207-.001 0-.002V49c-.107526-.30139-.237353-.57844-.388672-.83008-.145503-.24745-.305572-.47896-.480469-.69531-.000304-.00039.000304-.002 0-.002l-.002-.002c-.169051-.21861-.350452-.42623-.539063-.62109-.000319-.00034.00032-.002 0-.002l-.0039-.002c-.185824-.19731-.374663-.39604-.566633-.59357h-.002c-.201608-.20354-.401727-.41318-.603516-.6289-.195937-.21286-.384576-.43764-.564453-.67969-.177285-.23855-.341273-.49778-.49414-.77148l-.002-.004-.002-.002c-.150555-.27634-.281335-.58315-.392578-.91797-.1081-.33512-.196143-.70689-.261719-1.11524v-.002c-.06159-.40402-.0918-.85317-.0918-1.35156 0-.62451.04078-1.20342.125-1.73438.08474-.54022.202075-1.02986.351562-1.47265.153116-.45012.333148-.84902.541016-1.19727.211788-.34959.440684-.64032.6875-.87695v-.002h.002c.249147-.24141.511677-.42126.789062-.54101h.002c.281284-.12584.567142-.1875.859375-.1875zm8.875 0c.408394 0 .781733.0669 1.123047.20508.350718.14059.650082.31289.898438.51367.250441.20244.444689.41645.580078.63672.135766.22085.185547.40833.185547.53125 0 .41162-.0054.94503-.02148 1.60547-.01475.60694-.03563 1.36154-.05859 2.20312l-.13086-.01c.000328-.0121.0019-.0232.002-.0352v-.01c.0031-.0789.0039-.16046.0039-.24414v-.002c-.0033-.42546-.0284-.83155-.07813-1.2168v-.002c-.04751-.39878-.137566-.77738-.265625-1.13672l-.002-.004v-.002l-.002-.004c-.133687-.35514-.292506-.67098-.480468-.94727-.18466-.27636-.389685-.51103-.613282-.70117-.223165-.18976-.46226-.33231-.716796-.42774l-.0293-.006h-.002c-.244643-.0935-.49511-.14648-.75-.14648-.454052 0-.873259.13464-1.248047.40234-.367687.25875-.69384.62103-.980469 1.08203-.285931.45406-.533466.99324-.744141 1.61524-.206568.61339-.380391 1.28091-.517578 2.00195-.133695.71985-.234424 1.4765-.302734 2.26758-.06502.79052-.09766 1.58985-.09766 2.39844 0 .9538.04222 1.85574.126954 2.70312.08461.84628.206289 1.62787.363281 2.34375.156903.7155.346445 1.35886.570312 1.93164.223694.57236.474101 1.06174.753907 1.4668l.002.002c.283146.39882.589607.70818.921875.92383h.002c.336772.21638.69482.32813 1.068359.32813.252296 0 .508531-.0535.769532-.14844l.02734-.006c.274263-.10766.548828-.27298.824219-.49024.275446-.22351.550505-.50049.826172-.83203.247112-.29913.490496-.66584.732422-1.0625.02019.0228.0391.0451.05664.0742v.002l.0059.008c.02025.0295.03562.0606.04883.0976l.002.008.002.006c.01117.0268.01306.0354.01367.0469-.000421.002-.0014.004-.002.006-.0034.0132-.0075.0324-.01367.0508-.310081.63843-.623029 1.17281-.935547 1.59961-.315428.43078-.631281.77535-.945312 1.03711-.314601.26223-.628506.44798-.94336.55664l-.002.002c-.315795.11583-.631387.17188-.945312.17188-.413659 0-.807287-.10951-1.185547-.32813-.376274-.21349-.727325-.52141-1.054688-.92968-.327894-.40895-.624921-.90314-.892578-1.48633-.267609-.589-.495667-1.25221-.685547-1.98633-.189674-.73335-.338544-1.52969-.443359-2.39062v-.002c-.101373-.86595-.152344-1.77833-.152344-2.74218 0-.92839.04976-1.86194.148438-2.79688.101815-.94049.250312-1.8376.447265-2.69336.199729-.85407.448568-1.65014.746094-2.39062.299969-.7384.649116-1.37925 1.044922-1.91993.394505-.54473.83607-.96656 1.328125-1.26953h.002c.488445-.30651 1.024242-.45898 1.615234-.45898zm11.357422.0469l.002.002c.460745 0 .887907.0762 1.28125.23047.390446.14726.73161.39826 1.023438.75781v.002c.01209.0147.0174.0435.0293.0586-.287716-.34414-.623885-.60151-1.017578-.75l-.0293-.004.0293.006c-.0096-.004-.0216-.002-.03125-.006-.396558-.15117-.824192-.23242-1.285157-.23242-.346328 0-.708017.0285-1.085937.0879-.0041.00063-.0077-.00065-.01172 0-.378234.0544-.757139.12821-1.134766.21875-.374049.0905-.739607.19022-1.097656.29883-.333581.1021-.638779.2002-.923828.29687l-.01563.0234v-.01l.0293-.0723c.289367-.0985.59942-.19863.939453-.30274.356388-.10811.721591-.20873 1.09375-.29883.375051-.09.748268-.16288 1.123047-.21679h.002c.376601-.0597.736102-.0897 1.080078-.0899zm-26.519531.0332c-.241777 0-.543779.0593-.914062.17578h-.002c-.368039.1168-.788933.29095-1.265625.52148l-.04101.0469-.04687.125-.0059.0351.04883.74805.01562.0449.07031.0977.0918.0332c.08064-.0232.161952-.045.246094-.0625v.002c.08835-.0178.172796-.0332.253906-.0449l.0078-.002c.0806-.0173.153231-.0298.216797-.0352.07168-.006.133246-.008.183594-.008.142083 0 .245787.0285.310547.0703l.03906.0117-.03125-.008c.06803.0382.116477.0966.154297.18945.0379.0931.06637.22893.07813.41016v.002c.000054.00084-.000052.001 0 .002v.006c.01516.18721.02344.41993.02344.69727 0 1.01661-.0034 2.00827-.0098 2.97656v.004c-.0033.96834-.0099 1.93397-.01953 2.90234v.004c-.0064.96205-.01714 1.93202-.0332 2.91211-.01286.97447-.02953 1.97717-.04883 3.00586-.02251 1.22693-.04989 2.39548-.08203 3.50781v.006c-.02887 1.10264-.07204 2.12685-.132812 3.07227v.002c-.05757.95147-.137649 1.80425-.236328 2.56055-.09486.75717-.217197 1.39843-.369141 1.92187-.000475.002-.0015.004-.002.006l-.002.004c-.148783.52769-.332426.91978-.541016 1.18359-.206217.26625-.433618.38867-.71289.38867-.266506 0-.513303-.11773-.753907-.3789v-.002c-.235378-.24762-.455968-.68842-.646274-1.3246l-.01953-.0312-.05469-.0605-.06055-.0274c-.136052 0-.266487.0544-.3769528.15039v.002c-.1063909.0962-.19994.2157-.2792968.35742l-.00195.004-.00195.004c-.077504.14577-.1387079.30761-.1816406.48047-.046264.18033-.072266.3632-.072266.54101 0 .30325.051593.59368.1503906.86524.095222.27652.2294605.5184.4003905.7207.170202.20145.373568.35911.605469.47461.234141.12424.491065.18555.765625.18555.207585 0 .418678-.0389.632812-.11524.218443-.0779.435587-.20584.648438-.38281.214447-.1783.419994-.412.619141-.69726.000449-.00064.0015-.001.002-.002.205114-.28977.394408-.64545.572265-1.06445.182135-.42156.347757-.91593.498047-1.48438.151054-.56518.283908-1.21293.394531-1.94335.171744-1.12757.306034-2.34775.40625-3.66016.103275-1.31016.183443-2.66064.238282-4.05469.05801-1.39877.09922-2.81703.125-4.25781.02574-1.43893.0471-2.85342.06641-4.24414.0064-.52262.01311-1.04382.01953-1.56055v-.004c.0097-.51505.01898-.99772.02539-1.44141v-.004c.0096-.44888.0163-.84093.01953-1.17773v-.004c.0064-.34212.0078-.59611.0078-.76172 0-.38757-.0039-.73387-.01367-1.03906v-.002c-.01015-.31581-.04419-.58419-.105469-.81445l.0039.0176-.002-.0195c-.05948-.24222-.160777-.43317-.302734-.56054-.144933-.13944-.340583-.19922-.572266-.19922zm0 .16796c.204165 0 .348824.0482.457031.15235l.002.002c.01609.0143.02193.0532.03711.0703v.002c-.118212-.10476-.283718-.16602-.496094-.16602-.004 0-.01161.002-.01563.002v.002c-.229055.002-.519039.0567-.878906.16992-.348669.11066-.755057.2789-1.205078.49414l.01953-.0586c.458785-.22063.86554-.3911 1.214844-.50196.360852-.1135.651751-.16796.865234-.16797zm26.521484.0313c.45348 0 .870033.0761 1.253907.22656h.0039l.002.002c.377127.14276.702006.37964.978516.7207v.002c.274931.33347.491952.77816.652343 1.33789.158281.55236.240235 1.25016.240235 2.09765 0 .78225-.06829 1.49433-.205078 2.14063v.002h-.002c-.134431.64335-.323481 1.21652-.572265 1.72266v.004c-.24561.50563-.545384.93649-.896485 1.29688-.352286.36159-.743868.64722-1.177734.85742l-.04492.0566-.03906.16992.002.043c.334992 1.07262.639857 2.0173.914062 2.83203.274078.81437.524387 1.52963.753907 2.14649h.002c.22938.61043.439182 1.13836.630859 1.58203.191135.43636.373168.81481.542969 1.13867h-.002c.133994.26291.260538.49016.380859.67774h.002c.120374.18141.236603.33191.351563.44921h.002c.118952.11782.240108.20773.367187.26368.124112.0547.255321.084.390625.084.143836 0 .281968-.0298.41211-.084.07571-.0315.156556-.0837.236328-.13282l.06641.36329c-.362916.30287-.693871.54718-.970703.69531-.000368.00019-.0016-.0002-.002 0h-.002c-.30465.16866-.554374.24804-.734375.24804-.08881 0-.169896-.0186-.25-.0586l-.0059-.002c-.08001-.035-.162566-.093-.246093-.17383-.08384-.0812-.169635-.18557-.257813-.31641-.0898-.13901-.185506-.3006-.289062-.48828l-.002-.004-.002-.004c-.168533-.29777-.367153-.70516-.59375-1.22461-.226124-.52432-.482916-1.18103-.771484-1.9668-.285185-.79128-.603047-1.72512-.953125-2.80664-.33913-1.0477-.715074-2.27118-1.121094-3.63672.511086-.0571.975808-.17527 1.34961-.41601.410815-.26459.744951-.62593 1-1.08399.256843-.45521.442801-.99513.55664-1.61523.112958-.62153.167969-1.30949.167969-2.06445 0-1.44846-.200989-2.56059-.626953-3.3125-.425116-.7504-1.069687-1.13282-1.886719-1.13282-.172952 0-.340185.0139-.498047.0391-.15515.0248-.322886.059-.507812.10156l-.05664.0449-.05469.11133-.0098.0352c-.0064.46303-.01447 1.08117-.02734 1.85743v.006c-.0097.77565-.02299 1.66763-.03906 2.67773-.01287 1.00476-.02757 2.11095-.04687 3.31445-.0193 1.19785-.04125 2.45139-.06055 3.76368-.0193 1.30596-.03803 2.65099-.06055 4.03515-.02162 1.32303-.04283 2.6434-.06445 3.96094l-.939453.22266c.03668-1.64767.07075-3.22138.101562-4.70313.03218-1.54758.05685-3.05421.07617-4.51758.02253-1.46916.04181-2.92032.05469-4.35351.01288-1.43948.01758-2.91246.01758-4.41797 0-.26151-.01059-.4905-.03516-.6875-.02519-.20194-.07107-.37519-.142578-.51758-.07025-.14689-.170927-.25491-.294922-.32227-.123092-.0668-.270922-.0976-.439453-.0976-.187253 0-.427628.0511-.683593.11328l-.0332-.42773c.267327-.0901.547286-.18242.857422-.27735.354835-.10763.71679-.20516 1.087891-.29492.369281-.0885.738773-.1614 1.107422-.21484l.01172-.002h.002c.373816-.0593.731169-.0859 1.072265-.0859zm-26.521484.19726c.191858 0 .321563.0512.400391.12695l.0039.002c.08759.0774.152014.19586.195312.37304l.002.004v.004c.04722.17794.07881.40608.08789.68945.0096.29667.01367.63865.01367 1.02148 0 .15877-.0034.41183-.0098.75391-.0033.33545-.0099.73107-.01953 1.18164-.0064.44488-.0138.92805-.02344 1.44531-.0064.5176-.01309 1.04077-.01953 1.56446-.0193 1.38997-.04069 2.80214-.06641 4.24023-.0257 1.43621-.06914 2.85212-.126953 4.24609-.05455 1.38664-.133693 2.73114-.236328 4.03321v.002c-.09925 1.29974-.233054 2.50377-.402344 3.61524-.108177.71425-.234033 1.34271-.378906 1.88476-.145493.55029-.305113 1.02531-.476563 1.42188l-.002.002c-.169136.39845-.3481.72829-.535156.99219v.002c-.186138.26697-.375597.47807-.566406.63672-.192764.16028-.381818.27142-.56836.33789-.191497.0683-.376549.10351-.554687.10351-.240144 0-.457297-.0537-.654297-.1582l-.002-.004c-.204243-.10114-.377629-.23596-.521485-.40624-.143753-.17013-.2535877-.36803-.3320308-.59571-.0001963-.00057.000196-.001 0-.002v-.004c-.080987-.22186-.1210937-.44399-.1210937-.68164 0-.12248.017596-.25628.054687-.40039.03366-.13647.082221-.262.1445312-.3789h-.00195c.062144-.11098.1334959-.20149.2128909-.27344.04656-.0404.09728-.0494.15039-.0586.188167.57826.397152 1.05203.66211 1.33008.280129.30349.596845.46875.935547.46875.35126 0 .663654-.17395.914062-.49609l.002-.002c.247682-.31391.447627-.75552.607422-1.32226.162523-.55845.292778-1.22745.390625-2.00781v-.002c.100697-.77211.17813-1.63787.236328-2.59961.06141-.95528.107677-1.98689.136719-3.09765.0322-1.11466.05949-2.28685.08203-3.51563.01929-1.02878.03596-2.03108.04883-3.00586v-.004c.01606-.98041.02678-1.95166.0332-2.91406.0097-.96969.01631-1.94045.01953-2.91016.0064-.96969.0098-1.96258.0098-2.98047 0-.28535-.0087-.5284-.02539-.73633v-.008c-.0143-.22395-.04878-.41582-.113281-.57422-.0653-.16032-.164785-.28105-.289063-.35156-.120035-.076-.267001-.10938-.4375-.10938-.0579 0-.12548.002-.203125.01-.07538.007-.157793.0199-.246094.0391-.08374.0122-.168553.0271-.257812.0449h-.002c-.03459.007-.06636.0171-.09961.0254l-.02539-.37304c.421531-.19947.806055-.36032 1.128906-.46289.356737-.11222.643824-.16602.845703-.16602zm14.804688.49219c.243784 0 .482885.0466.71875.14062h.0039l.002.002c.234713.0883.457143.21887.666015.39648.209976.17856.402754.40259.580079.66797h.002c.0069.0101.01076.0249.01758.0352-.166313-.23956-.344128-.45202-.542969-.6211-.212465-.18065-.440419-.31417-.683594-.40625l-.0059-.008c-.246475-.0984-.500465-.14649-.757812-.14648-.440664 0-.844367.13287-1.203126.38867-.337037.23717-.632728.57797-.898437.99023.0061-.01.0095-.0254.01563-.0352.277211-.44585.589872-.78994.935547-1.0332.348539-.24895.729378-.37109 1.150391-.37109zm-8.878907.01c.287097 0 .543846.0739.779297.22657h.002c.237156.14594.441321.37258.613281.68164l.002.002c.0038.007.004.0187.0078.0254-.160818-.26698-.344588-.49149-.574219-.63281-.246633-.15953-.525619-.24219-.830078-.24219-.307116 0-.595267.10096-.857422.29102-.237878.16898-.435753.41569-.611328.70703.0034-.006.0044-.0156.0078-.0215.187848-.33324.40702-.58857.65625-.76562h.002c.25242-.18306.51767-.27149.802734-.27149zm20.201172.10547c.766278 0 1.33833.33745 1.740235 1.04688.0031.006.00079.0198.0039.0254-.396504-.64908-.976878-1.00781-1.744141-1.00781-.169137 0-.33157.0105-.486328.0351-.137269.0218-.291065.0537-.453125.0899l-.01953.0234c.000089-.006-.000089-.019 0-.0254l.0293-.0586c.166193-.0377.321555-.0699.458984-.0918.148376-.0236.305909-.0371.470703-.0371zm-27.267578.44532c.150016 0 .263872.0274.349609.082l.0039.002c.08713.0489.162226.13554.216797.26953.000818.002.0011.006.002.008-.04541-.0788-.09181-.15867-.169922-.20312-.101683-.0656-.237491-.0977-.402344-.0977-.05663 0-.122251.004-.197266.01-.06975.006-.144553.0188-.222656.0352h-.0039c-.0041.00087-.0076.001-.01172.002-.08372.0122-.170383.0269-.259766.0449-.06801.0142-.135173.0311-.201171.0488l-.02344-.0332-.0039-.0762.05859.043c.06367-.0169.124877-.0337.1875-.0469h.004c.08892-.0178.173743-.0311.255859-.043l.0059-.002c.08137-.0177.15505-.0284.224609-.0352.07166-.007.133604-.008.1875-.008zm.402344.1582c-.000812-.00046-.0011-.002-.002-.002l-.04102-.0117zm23.83789-.0508c.148008 0 .266694.0258.359375.0762.09193.0499.167163.12793.22461.24805v.002c.003.006.003.0173.0059.0234-.04987-.0772-.102246-.15398-.185547-.19922-.10808-.0588-.243814-.0879-.404297-.0879-.203303 0-.465748.0489-.767578.12695l-.02539-.0371-.0059-.0684.05859.041c.296886-.0769.553421-.125.740234-.125zm-15.191406 3.5625l.03125.0371.367188.0332.04492-.0391c-.000611.0212-.0013.0393-.002.0605l-.02539.043-.386719-.0371-.03125-.0625c.000529-.0122.0014-.023.002-.0351zm9.705078.60937l.0332.0371.296875.0234.04492-.041c-.000601.022-.0013.0345-.002.0566l-.02539.0449-.320313-.0215-.0293-.0606c.000488-.0138.0016-.0256.002-.0391zm43.882813 1.90039c-.396148 0-.757488.24884-1.06836.70899-.303392.44777-.577177 1.05611-.826172 1.82226v.002c-.245213.76457-.466248 1.66201-.664062 2.69335-.06506.34282-.117128.7389-.175781 1.10743.01373-.30729.02964-.62342.04102-.91407v-.006c.02242-.4976.04254-.96436.05859-1.39648.01608-.43307.02937-.81096.03906-1.13672v-.002c.01284-.33044.02283-.59943.0293-.80469.0064-.2054.0078-.32309.0078-.3789 0-.47661-.04641-.84966-.158203-1.125-.11157-.28895-.322834-.45508-.580078-.45508-.163547 0-.384737.0837-.720703.23632-.343106.14986-.7797.40466-1.316407.76758l-.0332.0469-.03906.13281-.0039.0332.07227.65039.01953.0449.07617.0879.09961.0215c.115032-.0538.21484-.0999.298828-.13476l.0039-.002c.08621-.0404.162167-.0692.228516-.0918.06757-.023.128543-.0402.179687-.0508.05038-.0105.09803-.0156.144531-.0156.08964 0 .148372.0228.181641.0508l.0078.006c.03561.0267.05942.0644.08203.14062l.002.006c.02639.0808.04607.19291.05469.3379.0092.15426.01367.34202.01367.56054 0 .26861-.0014.6349-.0078 1.10352v.004c-.0033.46762-.01255.99906-.02539 1.59375-.0097.58898-.02299 1.22847-.03906 1.91407-.01286.67922-.02758 1.36907-.04687 2.0664-.01929.6917-.04 1.37337-.0625 2.04688-.02249.6731-.04658 1.29478-.07227 1.86523l.0078.0391.05664.125.06641.0469.07813.01h.02152l.01758-.002 1.009766-.23437.05469-.0449.05273-.10351.0098-.0332c.01906-.38636.0509-.86471.0957-1.4336v-.002c.04791-.57336.110068-1.18403.183594-1.83008v-.002c.07668-.65142.165316-1.32023.267578-2.00195v-.002l.002-.01v-.004c.104828-.68168.222963-1.33126.349609-1.94727h-.002c.130494-.61923.274639-1.18042.429688-1.68359.153968-.50555.317837-.90694.490234-1.20117.103462-.17696.21511-.30795.332031-.39649.116548-.0883.22796-.12695.345704-.12695.107232 0 .207444.0369.30664.11719l.0039.002c.100901.0745.219471.21032.347657.41016l.02148.0234.03906.0273.04883.0176h.03906l.04883-.0156.03711-.0254.01953-.0215c.147879-.21079.258085-.45361.326172-.72852.06977-.27409.105469-.56083.105469-.85547 0-.2243-.02641-.43203-.07422-.625v-.006c-.0011-.004-.000872-.009-.002-.0137v-.004c-.04949-.19768-.119262-.37079-.207032-.51563v-.002c-.08847-.15134-.195655-.27067-.320312-.35547-.126143-.0857-.265733-.12891-.410156-.12891zm-8.539063.01c-.199757 0-.410694.0409-.636719.12305-.223625.0762-.44584.19006-.666015.33984-.22006.14383-.433304.32055-.638672.53125-.208376.21378-.392396.45742-.550781.72851-.15922.27251-.28827.57406-.386719.9043v.004c-.0021.007-.0018.0161-.0039.0234-.09283.33076-.142578.6826-.142578 1.05469 0 .22727.02152.4363.0625.62891v.008c.000778.004.0012.008.002.0117v.008c.04615.19256.10905.35827.1875.49805l.002.002c.07471.12705.165498.22338.265625.30078l.01563.0176c.0032.002.0046.008.0078.01l.0059.006c.115164.0717.242158.10937.373047.10937.222281 0 .437532-.10425.638672-.28906l.01758-.0234.0332-.0625.0078-.0215.01758-.0996v-.0215l-.0059-.10742-.0059-.0254c-.103839-.26283-.183561-.53132-.238282-.80273v-.002c-.05152-.27845-.07617-.55088-.07617-.82031 0-.22989.01876-.44011.05664-.63086.0399-.19026.100587-.34978.183594-.48437.08523-.13327.19473-.23861.333984-.31836.134172-.0768.306517-.11914.519532-.11914.146133 0 .293437.0448.447265.14258.149295.0949.285764.24226.410156.44726.121735.20064.223572.46455.302735.79492.07743.32312.11914.71013.11914 1.16797 0 .42356-.0095.81236-.02539 1.16211v.006c-.01082.29818-.02705.6077-.04492.92383-.311531.009-.620738.0396-.923828.11523-.346694.0805-.675513.21006-.986328.38282l-.0039-.002c-.313588.16852-.602635.38473-.86914.64649-.26857.25775-.500481.56758-.695313.92578-.192092.35936-.344428.7671-.455078 1.21875-.108507.45674-.162109.96457-.162109 1.51367 0 .42655.03647.82219.111328 1.19141l.0078.0215.002.004c.07739.35088.179305.66422.314454.92968l.002.002c.142084.2723.312148.48967.513672.64843.204616.16116.438019.24414.685547.24414.305829 0 .596145-.14501.859374-.41015.260428-.25333.502302-.5809.72461-.98438.224449-.40754.427672-.86577.611328-1.375.07591-.20927.134429-.42164.199219-.63281.0015.52391.03645.99502.109375 1.4043.07333.4115.178527.75875.316406 1.04492.0013.003.000696.007.002.01v.004c.139078.2797.307838.4944.505859.64258.197643.14789.420564.22461.654297.22461.309174 0 .605395-.11905.878907-.3457.272777-.22608.520169-.54976.74414-.96875l.0098-.0352.0078-.14453-.0059-.0332-.140625-.39063-.04687-.0488-.08398-.0332-.09375.0215c-.291814.32757-.540723.46875-.734375.46875-.110507 0-.203419-.0376-.294922-.125-.0915-.0874-.178546-.22668-.257813-.42382-.152435-.39279-.240234-1.01434-.240234-1.86133 0-.54382.0094-1.08873.02539-1.63867v-.006c.01922-.5511.04007-1.08435.0625-1.59961.02252-.52355.04249-1.02437.05859-1.5v-.006c.01923-.47605.02734-.91446.02734-1.31446 0-.59004-.03585-1.12447-.109375-1.5996-.07057-.47573-.183989-.88687-.345703-1.22852v-.002c-.16013-.35109-.375416-.62082-.638672-.80469-.262031-.18497-.577098-.27539-.933594-.27539zm-12.238281.008c-.213592 0-.43104.0393-.654297.11524-.222167.0706-.437326.18251-.646484.33398v-.002c-.209266.14543-.404158.33042-.587891.54882l-.0039.002c-.183254.22221-.345081.48163-.486328.77734-.139571.29294-.249138.62235-.330078.98828-.08201.37079-.123047.77508-.123047 1.20899 0 .39461.03019.75949.08984 1.09375v.004c.000646.004.0013.008.002.0117v.004c.06356.3254.150166.62288.257812.89453.000714.002.0012.004.002.006v.004c.109368.2604.236659.49892.378907.71679l.002.004c.0012.002.0027.004.0039.006l.002.004c.145792.21697.299184.41562.464844.60157.164009.1841.333418.35754.507812.51757l.0039.002c.173151.14997.345184.30272.515626.45312h.002c.190449.17229.373929.34126.548828.50782v.002c.172436.16129.323264.33737.451172.52539.126009.18522.224932.38622.298828.60742.07048.21098.107422.46003.107422.75391 0 .28201-.03483.52657-.103516.74609l-.002.004c-.06746.22498-.155934.4106-.267578.56054-.113158.15199-.241652.26481-.388672.34571-.146995.081-.295766.11914-.453125.11914-.169486 0-.342082-.0427-.519531-.13672-.170757-.0921-.326376-.23225-.472657-.42774-.143607-.19188-.269612-.44284-.373047-.75586-.09783-.30503-.158119-.67519-.179687-1.11328l-.002-.0176-.02148-.0762-.0098-.0215-.03711-.0625-.02539-.0254-.04297-.0293-.05078-.0137c-.128195.008-.257147.0403-.38086.10156-.123792.0567-.235326.1455-.333984.26172-.102997.12133-.184076.27667-.246094.46094l-.0039.0254v.004c-.05695.18985-.08594.40911-.08594.65625 0 .29445.03405.57233.105468.82617l.0059.0137.002.004c.0718.23264.164473.44602.28125.64062l.002.004c.000431.00071.0015.001.002.002l.002.006c.123366.19232.266337.36332.425781.51562l.002.004c.161655.14491.332765.27002.511718.37109.17931.10127.364374.17767.554688.22852.192909.0506.38186.0723.5625.0723.359824 0 .707721-.0926 1.039062-.2754.33684-.17821.635424-.44285.892578-.79101.258178-.34954.463924-.77606.615235-1.2793h-.002v-.002c.156269-.50916.234375-1.08732.234375-1.73047 0-.54062-.06292-1.01847-.191407-1.42773-.121475-.40401-.280382-.76139-.480468-1.07227-.191192-.29705-.411442-.5573-.652344-.78906l-.002-.004-.0039-.006c-.0042-.004-.0075-.01-.01172-.0137l-.002-.004c-.242251-.2356-.486789-.462-.732422-.67968-.217705-.19165-.425869-.38119-.626953-.57227-.192753-.18611-.363579-.3841-.511719-.5918v-.002c-.145606-.21023-.261249-.43218-.347656-.67187-.08324-.23627-.125-.49967-.125-.80274 0-.23291.02977-.45551.08789-.67383v-.002c.0614-.21818.14661-.41037.257813-.58008.113211-.17378.250513-.3122.414062-.41601.15875-.10071.339563-.15039.548828-.15039.113343 0 .227595.0217.345704.0703.116498.0468.22022.12069.316406.22656.0929.10223.17156.23587.234375.40625.000227.00062-.000227.001 0 .002l.002.008c.06071.15306.09669.3466.09961.59765-.000113.12403-.0093.26221-.02734.41407-.01775.14936-.04854.317-.0918.50195l-.002.0176-.002.0801.002.0137.01367.0898.0078.0293.04297.0762.03516.0332c.162098.0858.322862.13086.480469.13086h.004c.169232-.008.325334-.0699.449219-.18945.113596-.10965.208013-.24482.279297-.40625v-.004c.0026-.006.0033-.0134.0059-.0195l.002-.01c.06233-.15335.111218-.31493.138672-.48829.02762-.17438.04297-.34262.04297-.5 0-.38966-.05666-.74664-.169922-1.06445h.002c-.107328-.31091-.258438-.57415-.445312-.78906-.0013-.001-.000699-.004-.002-.006l-.0039.002c-.183493-.21867-.398863-.38868-.646484-.49804l-.0039.002c-.242428-.11401-.500359-.1716-.771485-.17188h-.002zm-5.457031.0273l-.0039.002c-.381678.00074-.742677.11312-1.076171.33594h-.002c-.327625.22116-.62696.52533-.900391.9121-.269717.38-.509578.82927-.720703 1.34766-.210437.51056-.38956 1.06319-.53711 1.6582-.14418.59463-.255516 1.22248-.333984 1.87696h-.002c-.07525.65491-.111328 1.31138-.111328 1.96679 0 .80474.06515 1.56284.197265 2.27344.135129.70289.322461 1.3214.5625 1.85156.240469.53108.529564.95434.869141 1.26563.34281.31425.730421.47851 1.146484.47851.244987 0 .492278-.0641.738282-.18554.247627-.11622.485713-.29511.716797-.53321h.002c.234761-.24467.456391-.5459.667968-.89843.215798-.36024.415665-.77655.59961-1.25586h-.002c.01939-.0484.0332-.10674.0332-.17188 0-.0863-.02006-.16369-.04883-.22851-.02345-.0581-.05102-.11089-.08398-.15821-.028-.0448-.05943-.0824-.0918-.11523l-.0059-.01-.0059-.004v-.002c-.02768-.0341-.05259-.0642-.08008-.0898l-.08594-.0176-.07031.0254-.04687.0391c-.305444.58909-.605916 1.00746-.890626 1.25976-.28522.24937-.551569.36719-.804687.36719-.252205 0-.483149-.1074-.710937-.33984-.229185-.23387-.433756-.56622-.609376-.99805v-.002c-.175116-.43721-.316414-.96678-.419921-1.5879v-.002c-.0993-.61631-.149827-1.30164-.150391-2.05273.547221-.0965 1.069339-.22531 1.546875-.40625.522819-.20299.979905-.47091 1.369141-.80078.39165-.3319.701456-.73747.925781-1.22071.230847-.48988.345703-1.06969.345703-1.71875 0-.44426-.05178-.85071-.15625-1.20898-.102596-.35188-.242679-.64733-.419922-.88867-.17332-.24644-.377354-.43769-.611328-.56836-.233298-.13028-.480855-.19532-.738281-.19532zm11.8125 0v.002h-.002c-.382377.00037-.744078.11275-1.078125.33594-.327625.22116-.626958.52533-.900391.9121-.269715.38-.511531.82927-.722656 1.34766-.210437.51056-.389561 1.06319-.53711 1.6582-.144067.59417-.253593 1.22137-.332031 1.875v.002h-.002c-.07525.65491-.111328 1.31138-.111328 1.96679 0 .80474.06515 1.56284.197266 2.27344.135129.70289.32246 1.3214.5625 1.85156.240524.53121.53161.95443.871093 1.26563.342717.31417.72847.47851 1.144531.47851.244652 0 .490847-.0646.736329-.18554.24763-.11622.487665-.29511.71875-.53321.234762-.24467.458344-.5459.669921-.89843.215707-.36009.415608-.7764.59961-1.25586h-.002v-.002c.01906-.0481.0332-.10549.0332-.16992 0-.0869-.02094-.16623-.05078-.23242-.02299-.0561-.04878-.1071-.08008-.15234l-.002-.006c-.0283-.0454-.06161-.079-.09375-.11133l-.0039-.006c-.00094-.00093-.001-.003-.002-.004l-.0039-.006c-.02768-.0341-.05259-.0642-.08008-.0898l-.08594-.0176-.07227.0254-.04492.0391c-.305495.5892-.60602 1.00755-.890625 1.25976-.284997.2491-.553355.36719-.806641.36719-.252205 0-.48315-.1074-.710937-.33984-.229515-.23422-.433586-.56728-.609376-1-.174133-.43436-.314555-.96015-.417968-1.57618l-.002-.01c-.00012-.00072.000119-.001 0-.002v-.002c-.0991-.6151-.147681-1.30142-.148438-2.05078.547797-.0966 1.066854-.22705 1.544922-.4082.522818-.203.979904-.47091 1.369141-.80078.391251-.33157.701511-.73811.925781-1.22071v-.002c.230343-.48955.347656-1.06845.347656-1.7168 0-.44425-.05179-.8507-.15625-1.20898-.102571-.3518-.242497-.64906-.419922-.89063-.173269-.24601-.377894-.43604-.611328-.5664-.233298-.13029-.482807-.19532-.740234-.19532zm18.769531.01c-.377562 0-.736811.11551-1.068359.3457-.327932.22165-.626448.53091-.896485.92383-.266125.38585-.503983.84133-.714844 1.36524-.207014.51639-.383884 1.07737-.53125 1.67773-.14421.5948-.254808 1.21625-.330078 1.86523-.07515.64241-.113281 1.28675-.113281 1.92969 0 .477.02544.9508.07422 1.42188v.002c.000201.002-.000202.004 0 .006v.004c.05202.46235.129367.90517.226562 1.33203.0011.005.000816.0107.002.0156v.004c.102413.42644.227757.82706.376953 1.19922l.0039.002c.153234.36721.329545.69204.53125.96875.203111.27232.432138.48839.685547.64258.258141.16316.542392.2422.845703.24219.55625 0 1.073108-.25258 1.53125-.74414.459895-.49345.845266-1.22608 1.164062-2.19141l.002-.008.002-.008.002-.01.002-.006c.0012-.003.0038-.0115.0039-.0117.000086-.00031.0015-.006.002-.008.000194-.001-.000133-.001 0-.002.0015-.006.0021-.004.002-.004.000049-.00047-.000033-.002 0-.002.0011-.003-.000027.003.002-.004v-.004c.0047-.0206.0071-.036.0078-.043.0021-.0205.0039-.0401.0039-.0605 0-.0886-.02416-.16424-.05273-.22657-.02301-.0503-.04883-.0986-.07813-.14648-.03122-.0511-.06815-.0965-.107422-.13477v-.002l-.0059-.006c-.02526-.031-.04876-.0583-.07422-.082l-.08984-.0156-.07422.0293-.04297.0449c-.276521.62312-.561492 1.06427-.841797 1.33204-.282182.2668-.547682.39062-.802735.39062-.24215 0-.468456-.10503-.693359-.33203-.22593-.228-.425712-.55533-.601563-.98242-.175302-.43203-.319105-.95398-.425781-1.57031h.002c-.103176-.62-.15625-1.31147-.15625-2.07422 0-.42587.01517-.85988.04687-1.30469.03163-.44965.08021-.88546.146485-1.31055.06928-.42415.156365-.82018.259765-1.18945.105568-.36594.229156-.68406.373047-.95899.144776-.27017.308876-.47723.490235-.625l.002-.004h.002c.17677-.14882.369024-.2207.59375-.2207.152268 0 .275667.0405.380859.11914l.0039.002c.112273.0768.204513.18432.279297.32422l.002.002c.07527.13558.13258.2952.169922.48242.000135.00068-.000134.001 0 .002v.004c.04047.1839.0625.38215.0625.59766 0 .31696-.04267.62777-.126953.9375l-.002.0195-.0039.0898.002.0195.01953.10157.0078.0215.0332.0664.02148.0254c.07529.0612.151993.10584.230469.14062.0079.004.01551.0105.02344.0137l.0098.006c.08783.0274.174441.041.257813.041.12176 0 .234575-.0454.339843-.10742l.04687-.0156h.0039c.119463-.0865.219083-.21045.300781-.36328.08401-.15714.148495-.33844.191406-.54492v-.002l.002-.0156v-.004c.04394-.21076.06641-.4457.06641-.70118 0-.40386-.05149-.77354-.15625-1.10742l.002-.002c-.10042-.33687-.242281-.62229-.423828-.85742-.177535-.24099-.389008-.42517-.634766-.55469-.24642-.12986-.513551-.19336-.794922-.19336zm-4.347656.11328c.11301 0 .214022.0314.314453.0996.100964.0687.193206.16848.271484.30274l.002.002c.0051.008.0068.0226.01172.0312-.06813-.10056-.140823-.19352-.232422-.25586-.111025-.0756-.234762-.11719-.367187-.11719-.355228 0-.674453.23549-.958985.63867.01046-.016.01879-.0489.0293-.0644.293219-.43402.603601-.63672.929688-.63672zm-8.539063.01c.329366 0 .606081.08.837891.24414v.002c.235473.16447.431678.40612.582031.73633v.002c.0012.003.000725.007.002.01-.139929-.27676-.305745-.51574-.529297-.67188-.244458-.17298-.546086-.25976-.892578-.25976-.190882 0-.395844.0414-.615234.12109-.21597.0737-.430588.18259-.644531.32813-.214856.14007-.422733.31207-.623047.51757-.179979.18464-.33134.3987-.470703.625.0024-.004.0035-.01.0059-.0137.151991-.26015.329108-.49389.527344-.69726.197898-.20304.401982-.37111.611328-.50782v-.002c.21017-.14297.41934-.24972.626953-.32031h.002c.211487-.0768.403728-.11328.580078-.11328zm20.31836 0c.167136 0 .329675.0592.492187.1875l.002.002c.145635.11036.277564.30272.398438.53711-.105123-.18145-.210742-.3585-.34375-.45898-.171471-.13574-.356271-.20704-.548828-.20704-.27378 0-.551865.15835-.833985.44336.01468-.0161.03027-.0591.04492-.0742.284292-.29282.547505-.42968.789063-.42968zm-32.558594.008h.002v.002c.250029 0 .486123.0525.708984.15821l.002-.002c.224801.0993.419876.25109.589843.45508h.002c.01605.0184.0236.0491.03906.0684-.1654-.19192-.359118-.34436-.583985-.44531-.003-.001-.0048-.005-.0078-.006v-.002c-.234209-.111-.485572-.16601-.75-.16601-.197689 0-.40015.0395-.607422.10742l-.02539.004c-.211339.0669-.414617.17581-.613282.31836l-.0098.004c-.194585.13506-.377025.30694-.548829.50782.01482-.0189.02591-.0461.04102-.0645.000328-.0004-.000328-.002 0-.002h.002c.176214-.20979.360691-.38335.556641-.51953l.002-.002c.196458-.14227.396374-.244.599609-.30859l.002-.002c.207427-.0706.406897-.10525.599609-.10547zm-5.453125.0273c.229093.00031.445184.0571.654297.17383.209546.11703.395455.2884.55664.51758v.002c.01034.0141.0153.0382.02539.0527-.153542-.20716-.326116-.38044-.533203-.4961-.221227-.12349-.458494-.18554-.705078-.18554v.002h-.002c-.369402.00037-.716942.10834-1.03711.32226h-.002c-.305138.20598-.580094.49553-.835937.84961.01151-.0166.01964-.0422.03125-.0586.263918-.37332.551459-.66324.859375-.87109.309448-.20633.636567-.30664.986328-.30664zm11.810547 0h.002c.229095.00031.447138.0571.65625.17383.209686.1171.39559.28859.55664.51758l.002.002c.01095.0149.01472.0412.02539.0566-.154125-.20884-.328835-.38368-.537109-.5-.221226-.12349-.458494-.18554-.705078-.18554l-.0039.002c-.368694.00074-.715538.10871-1.035156.32226-.302893.20473-.579579.49292-.833984.84376.01046-.0151.01875-.0379.0293-.0527.263919-.37332.549506-.66324.857422-.87109.309947-.20709.635936-.30664.986328-.30664zm18.769531.01c.256253 0 .494469.0567.716797.17383.222726.11738.41409.2832.578125.50586l.002.002c.01221.0158.01745.0422.0293.0586-.158732-.20536-.343302-.37564-.564453-.49218h-.002c-.23451-.12511-.488371-.18711-.759769-.18711l-.0039.002c-.362722.00077-.705367.11255-1.021485.33203l-.02734.0312-.002.002c-.289076.20156-.555117.47305-.796874.81445.0091-.0134.01626-.0336.02539-.0469.260527-.37908.544458-.67328.851563-.88086h.002c.306816-.21302.62902-.3164.972656-.3164zm-7.644531.0606c.05692 0 .0792.0843.126953.10351-.04372-.0114-.07824-.0391-.126953-.0391-.07109 0-.155523.0201-.269531.0586-.111829.0377-.251515.0944-.414063.16797l-.0078.002c-.321824.1403-.743596.39211-1.246093.72852l.01758-.0586c.519158-.34959.946493-.60013 1.267578-.74024h.002c.329981-.14988.553855-.22265.650391-.22265zm3.296875.11523c.09915 0 .186353.0286.273437.0879.08802.0599.164789.14323.230469.25586l.002.004c.06512.10659.118177.23672.158203.39648.00017.00068-.00017.001 0 .002v.002c.03889.15074.05859.31656.05859.50586 0 .24719-.02898.48535-.08789.71679v.002c-.04173.16847-.12071.31256-.205078.45507-.09953-.13731-.196757-.27403-.300781-.35156-.000712-.00057-.0012-.001-.002-.002l-.01758-.006c-.134234-.10266-.284008-.16406-.439453-.16406-.172117 0-.340203.063-.494141.17968-.153301.11608-.288366.27998-.410156.48829-.194344.33169-.369929.76328-.53125 1.29296-.159981.51946-.306302 1.09471-.439453 1.72657l-.002.0176v-.0156c-.129693.63085-.24669 1.29378-.353515 1.99023-.103367.68892-.193886 1.36414-.271485 2.02344l-.002.002c-.07429.65266-.133113 1.26665-.18164 1.84765v.01c-.04.50844-.06831.92264-.08789 1.28906l-.796875.1875c.02241-.51426.04264-1.05414.0625-1.64844.02254-.6746.04513-1.35802.06445-2.05078.01932-.69903.03594-1.38929.04883-2.07031.0161-.68683.02745-1.32346.03711-1.91406.01287-.59595.02214-1.12889.02539-1.59961v-.002c.0064-.46862.0078-.83892.0078-1.11132 0-.22672-.0036-.42485-.01367-.59571v-.002c-.01067-.17955-.03619-.33574-.08008-.4707v-.002c-.04174-.1375-.107276-.24751-.199219-.31836-.09278-.078-.210744-.11328-.339844-.11328-.06495 0-.12835.009-.191406.0215-.06493.0136-.133513.0356-.207031.0605-.07468.0255-.161478.0573-.255859.10157-.03921.0164-.08725.0401-.132813.0605l-.0293-.26562c.47771-.31784.887093-.56286 1.181641-.69141h.004c.163075-.074.300118-.12826.40625-.16406s.184335-.0508.214844-.0508c.08539 0 .14643.0192.197265.0586.05084.0394.0943.10121.128907.19141l.002.008c.07347.1809.11914.48768.11914.92383 0 .0265-.0014.1595-.0078.36328-.0064.20248-.01654.4666-.0293.79492-.000063.002.000063.002 0 .004l-.002.004c-.0097.3242-.02104.70403-.03711 1.13672-.01605.43249-.03415.89568-.05664 1.39453v.002c-.01927.49257-.04265 1.00979-.06836 1.55078-.02571.53512-.05311 1.07042-.08203 1.60547l.0078.0391.05273.12305.05859.0488.04883.0117.08594-.0312.06641-.0879.01563-.0391c.153819-1.17503.325676-2.27004.517578-3.28125.194678-1.01497.412977-1.8906.650391-2.63086.240048-.73861.499724-1.3119.77539-1.71875.27491-.40691.55414-.58789.853516-.58789zm-8.539063.01c.318217 0 .581211.0792.794922.23046h.002c.218909.1529.393376.37338.529297.67188v.004l.002.002c.138445.29253.240196.65117.304688 1.08203.000569.004.0014.006.002.01v.004c.06805.43979.103515.94227.103515 1.50781 0 .3924-.01021.82668-.0293 1.29883-.01605.47453-.03415.97136-.05664 1.49414-.02256.51846-.04511 1.05479-.06445 1.60938v.006c-.01613.55591-.02344 1.10822-.02344 1.6582 0 .88626.08497 1.57101.273438 2.05664v.002c.09462.23603.207137.41969.341797.54883.134659.12914.295603.20117.466797.20117.253375 0 .502529-.20873.757812-.45898l.0332.0918c-.191788.33927-.392749.61665-.605469.79297-.234907.19469-.46987.28711-.720703.28711-.184798 0-.349488-.0568-.505859-.17383-.155619-.11645-.293666-.2911-.412109-.5293-.11727-.24184-.211883-.54938-.279297-.92773-.06709-.37653-.101563-.82185-.101563-1.33204 0-.15356.0027-.30554.0059-.45898v-.004c.0063-.14896.01774-.30867.0332-.47656l-.0078-.041-.06055-.13282-.07617-.0508h-.03125l-.0625.0293-.05469.0625-.01758.0332c-.136436.5105-.29545 1.01825-.476563 1.51758-.176688.48991-.370892.92752-.583984 1.31445-.208578.37856-.431407.6802-.666016.90821l-.002.004c-.000522.00053-.0014-.00052-.002 0-.2249.22643-.447298.33008-.68164.33008-.196313 0-.370742-.0634-.533204-.19141-.164741-.12975-.306372-.30732-.427734-.53906v-.002c-.118619-.23337-.215238-.51052-.285156-.83399v-.002c-.06644-.32836-.09961-.6847-.09961-1.07617 0-.50937.04947-.96763.146485-1.37695v-.002c.101645-.41423.23962-.78301.414062-1.10937.178074-.32739.389041-.60816.634766-.84375h.002c.248033-.24362.516998-.44292.808594-.59961l.002-.002c.292273-.16288.60078-.28364.927734-.35938h.002c.328298-.0818.662436-.12109 1.003907-.12109l.07227-.041.0625-.10547.01172-.0371c.0226-.38039.03979-.74878.05273-1.10547v-.006c.01614-.35886.02344-.753.02344-1.18164 0-.49309-.04292-.92756-.132813-1.30273-.08814-.36785-.205015-.67713-.353515-.92187-.146133-.24085-.314606-.42341-.50586-.54493-.186852-.11872-.380535-.18164-.576171-.18164-.243941 0-.459967.0488-.640626.15235-.174884.10022-.321205.23855-.435546.41796l-.0039.008c-.108415.17687-.186448.3879-.236328.62695v.002h-.002c-.04578.23061-.06836.48048-.06836.74414 0 .30273.03021.60675.08594.91211v.004c.000724.004.0012.008.002.0117v.004c.05218.26029.133679.50965.22461.75586-.142045.114-.280209.18946-.408203.18946-.08688 0-.16402-.0237-.242188-.0723h-.002c-.0713-.0518-.135394-.1237-.193359-.2207l-.002-.002v-.004c-.05567-.0999-.103408-.22427-.140624-.37891v-.002c-.03329-.15143-.05078-.32359-.05078-.52148 0-.32899.04033-.63362.123047-.92188v-.004c.08798-.29418.204963-.56241.347656-.80664.144114-.24665.311506-.46868.501953-.66406.192755-.19775.390398-.36157.59375-.49414l.002-.002c.203781-.13862.406592-.24029.607422-.3086l.002-.002c.205327-.0745.390094-.10937.55664-.10937zm-12.238281.008c.24112 0 .465746.0499.677734.15039l.0039.004c.213562.0944.397114.23379.552734.41992l.002.006c.158986.18177.285561.40324.376953.66796.09273.26024.138672.54987.138672.88282 0 .12045-.01142.25637-.03516.40625-.02233.14098-.06115.27648-.115235.40429-.05092.11369-.11696.20971-.201171.29102-.07472.0722-.163342.11155-.28125.11719-.08-.00032-.177049-.0361-.275391-.0781.03155-.1477.06219-.29155.07813-.42578.02045-.17214.03125-.33604.03125-.48828v-.004h-.002c-.0036-.3022-.04572-.56869-.132813-.78906v-.002c-.07827-.2114-.17773-.38785-.302734-.52539-.122629-.13495-.263256-.23538-.416016-.29688h-.002c-.143914-.0589-.288737-.0898-.433594-.0898-.248056 0-.478522.0638-.679687.19141-.19663.1248-.364078.29421-.501953.50585-.130223.19909-.231554.42808-.304688.6836l-.002.002c-.0012.004-.0027.007-.0039.0117l-.002.004c-.07024.26283-.105469.53865-.105469.82226 0 .35918.05076.69247.154297.98633l.002.002c.09985.27699.231433.53238.394531.76758l.002.002c.160637.22539.34315.43813.548828.63672h.002c.203986.19384.414606.38823.634765.58203.242795.21517.484872.43865.72461.67188v.002c.232538.22042.44054.47231.623047.75586.179285.27857.323577.5978.433593.96289.00027.0009.0017.001.002.002v.004c.109574.34902.166015.7669.166015 1.26172 0 .59625-.06965 1.11697-.208984 1.57031h-.002c-.138251.45981-.321814.84362-.552735 1.15625-.231985.31408-.49682.55023-.796875.70899h-.002c-.298305.16513-.604705.24804-.925781.24804-.159632 0-.327453-.0227-.501953-.0684-.170341-.0456-.336556-.11387-.498047-.20507-.16118-.091-.313952-.20245-.460938-.33399-.14139-.13537-.265631-.28613-.373046-.45312v-.002c-.103483-.17174-.186315-.35415-.248047-.55664-.000181-.00059.00018-.001 0-.002v-.002c-.05698-.20344-.08594-.42369-.08594-.66992 0-.21187.02343-.37739.06445-.50782v-.002c.04722-.13978.106787-.24847.177735-.33203.07461-.0879.154928-.14987.242187-.18945l.0039-.002c.06429-.0318.129803-.041.195313-.0527.02896.40976.08004.79063.181641 1.10742l.0059.0117.002.002c.114444.34272.252411.63294.421875.85938.169225.22613.36151.39722.570313.50976.208099.11032.419887.16797.630859.16797.19723 0 .387603-.0528.568359-.15234.181329-.0998.340802-.24277.478516-.42774.139028-.18674.249498-.41552.330078-.68359v-.004l.0039-.0215v-.002c.08089-.26804.125-.56214.125-.88477 0-.34422-.04426-.65878-.134765-.92969-.08689-.26008-.203233-.49475-.347657-.70703-.142008-.20873-.307383-.40122-.49414-.57617l-.002-.002c-.177128-.16867-.363246-.34272-.556641-.51758-.167649-.14794-.339284-.29568-.509766-.44336l-.0059-.01c-.166458-.15287-.329556-.31426-.486328-.49023-.155887-.17498-.302031-.36582-.439453-.57031-.131365-.20004-.246464-.4197-.347656-.66016l-.002-.004-.002-.004c-.0949-.24062-.171059-.50764-.228515-.80078-.05446-.29996-.08398-.63384-.08398-1.00391 0-.39668.0389-.75845.111328-1.08594.07353-.3324.170716-.626.294922-.88672.128698-.26942.275574-.50421.439453-.70312.168995-.2012.348255-.36502.53711-.49609l-.0332.01.03516-.0117c.189098-.13693.379489-.23695.574219-.29883h.0059c.201684-.0686.393029-.10351.578125-.10351zm-5.457031.0293h.002c.21779.00031.423665.0539.621094.16406.197084.11007.367139.26936.515625.48047l.002.002c.150024.20361.271217.45656.361328.76562.08861.30392.134766.65229.134766 1.05079 0 .57906-.10026 1.0686-.300782 1.49414v.004l-.002.002c-.200192.43034-.479253.79793-.839844 1.10351-.363588.30812-.794605.55964-1.294921.75391-.499576.18914-1.042731.3327-1.626954.42773l-.0625.0469-.05469.11328-.0098.0371v.15234c0 .77882.05376 1.4943.158203 2.14649v.002c.000568.004-.00057.008 0 .0117v.002c.108678.65306.258125 1.21865.449219 1.69531h.002c.191022.47021.417644.84385.683594 1.11524.267818.27327.56782.41797.888672.41797.325063 0 .651342-.14809.970703-.42774.291252-.25809.571527-.6907.853516-1.20508.01292.0147.02697.0271.03906.0469l.0039.008.0039.006c.01523.0217.03078.0487.04492.084l.002.008.0039.006c-.174952.45404-.360236.85115-.560547 1.18554-.200115.33343-.409112.61093-.625.83594-.211783.21795-.426207.37628-.640625.47656l-.002.002c-.217053.10716-.427137.1582-.632813.1582-.356528 0-.677908-.13265-.978515-.4082-.303875-.27856-.566215-.66213-.789063-1.1543-.223272-.49312-.400602-1.0708-.529297-1.74023-.125279-.67381-.1875-1.39581-.1875-2.16797 0-.63155.03683-1.26417.109375-1.89649v-.008c.07591-.63047.183968-1.23236.322266-1.80273.142033-.57275.312349-1.10139.513672-1.58985v-.002c.200634-.49262.42809-.91507.679687-1.26953.254335-.35975.529862-.63788.826172-.83789.295413-.19696.608185-.29297.945313-.29297zm11.814453 0c.21779.00031.423666.0539.621094.16406.197084.11007.369092.26936.517578.48047l.002.002c.150023.20361.269263.45656.359375.76562.08861.30392.134765.65229.134766 1.05079 0 .57906-.10026 1.0686-.300782 1.49414v.004l-.002.002c-.200191.43034-.477301.79793-.837891 1.10351-.363588.30812-.794605.55964-1.294921.75391-.500093.18948-1.042098.33259-1.626953.42773l-.06055.0449-.05664.11328-.0098.0391v.15234c0 .77877.05182 1.49433.15625 2.14649.000669.004.0013.01.002.0137v.002c.108677.65306.258125 1.21865.449218 1.69531.191021.47021.417644.84385.683594 1.11524.267817.27327.569774.41797.890625.41797.325064 0 .651341-.14809.970703-.42774.29125-.25809.571526-.6907.853516-1.20508.01334.0149.02771.0283.03906.0469l.0059.0117c.01486.0209.0303.0465.04297.0762l.002.006c.000619.001.0013.002.002.004l.002.01c.005.011.0033.006.0039.008-.174437.45201-.362759.8482-.5625 1.18164-.20021.33359-.407292.61107-.623047.83594-.212055.21848-.427475.37596-.642578.47656v.002c-.217054.10716-.427136.1582-.632813.1582-.356527 0-.677908-.13265-.978515-.4082-.303873-.27856-.568168-.66213-.791016-1.1543-.223271-.49312-.39865-1.0708-.527343-1.74023-.12528-.67381-.189454-1.39581-.189454-2.16797 0-.63155.03683-1.26417.109375-1.89649v-.002l.002-.006v-.004c.07586-.62889.182332-1.22975.320313-1.79882.142034-.57275.312349-1.10139.513672-1.58985l.002-.002c.20069-.49276.42818-.91519.679688-1.26953.253945-.3592.528374-.63793.824218-.83789.295907-.19771.607549-.29297.945313-.29297zm18.769531.008c.245484.00029.46979.0554.679688.16601.210173.11076.390747.26743.541015.47071l.002.008c.152885.198.273249.4364.359375.72461.000187.00062-.000186.001 0 .002v.004c.08798.27982.132813.59136.132813.94531 0 .22783-.01864.4256-.05469.59375-.000352.002.000357.004 0 .006l-.002.004c-.03443.16633-.08301.30507-.146484.42382-.05978.11183-.128143.19147-.208984.25-.07634.0519-.155656.0781-.248047.0781-.05382 0-.115601-.0112-.181641-.0312l-.002-.002c-.03941-.0165-.08396-.0459-.128906-.0781.0776-.31679.128906-.64053.128906-.97266 0-.25245-.02525-.49266-.07422-.71679v-.002c-.04635-.2309-.117274-.43751-.214844-.61328-.09808-.18293-.223407-.32827-.373046-.43164-.01473-.011-.03555-.008-.05078-.0176-.141338-.0919-.298585-.15234-.474609-.15234-.276559 0-.532651.0969-.753906.2832-.216681.17688-.406926.42092-.570313.72657-.158555.30295-.294987.65246-.408203 1.04492-.107094.38248-.194018.79275-.265625 1.22656-.0013.008-.0046.0138-.0059.0215l-.002.004c-.06884.44154-.117663.89407-.150391 1.35938-.03265.45814-.04883.90695-.04883 1.34765 0 .79003.05292 1.51575.162109 2.17188.111941.64671.263941 1.20726.455078 1.67773.191065.46405.416883.83048.679688 1.09571.264143.26658.557435.41015.86914.41015.330776 0 .658323-.1619.97461-.46094.287254-.2744.549601-.7328.80664-1.27343.01121.0131.0234.025.0332.041.02128.0348.04024.0697.05664.10547.002.004.000945.005.002.008v.002c-.304706.91982-.668295 1.601-1.082031 2.04492-.417067.44749-.859272.66015-1.345703.66015-.262185 0-.497187-.0659-.714844-.20312h-.002l-.002-.004c-.222107-.13477-.423123-.32388-.605469-.56836-.18359-.25212-.346044-.54737-.488281-.88867-.140124-.34982-.258636-.72371-.355469-1.12695-.09401-.41036-.166459-.83658-.216797-1.2832v-.002c-.04706-.45273-.07031-.90859-.07031-1.36719 0-.62038.03668-1.2424.109375-1.86328.07272-.62697.179441-1.22593.318359-1.79882.142004-.57792.311793-1.11556.509766-1.60938.200963-.49933.425215-.92861.673828-1.28906.250753-.36486.524334-.64394.820312-.84375l.002-.004h.002c.292242-.20247.598093-.30078.927734-.30078zm-60.806641.24414c.166912.20641.342483.40746.527344.59765.193222.19882.387845.39524.583985.59375.202382.19833.404087.40461.603515.61524.202009.20994.392703.43687.576172.67773h.002c.01249.016.0228.0365.03516.0527-.175939-.22839-.359119-.44527-.552735-.64649-.199489-.21068-.400495-.41628-.603515-.61523-.196241-.1986-.391011-.39714-.583985-.5957-.192657-.19824-.375261-.40463-.548828-.6211-.01428-.0183-.02494-.0401-.03906-.0586zm29.763672.40625c-.235132 0-.454549.0805-.646484.23633-.187137.15195-.351871.35826-.496094.61523-.142839.24842-.266152.53792-.373047.86914-.106016.3223-.19757.66522-.273437 1.0293-.07217.36209-.131834.73495-.177734 1.11523-.04577.37924-.07798.7495-.09766 1.11133l.0098.043.06445.12695.08594.0449c.46515-.0613.882639-.16756 1.253906-.3164h.002c.374584-.15503.693059-.35184.955078-.59375.265476-.24833.473786-.54383.617187-.89063v-.004l.0059-.0293c.137363-.3494.210937-.74542.210937-1.18164 0-.29475-.02835-.57506-.08398-.83594v-.002c-.05177-.25599-.12797-.48157-.226563-.67383v-.002c-.09644-.20003-.214963-.36091-.355468-.47852-.142461-.11927-.304576-.18359-.47461-.18359zm11.814454 0c-.235133 0-.454551.0805-.646485.23633-.187138.15195-.351871.35826-.496094.61523-.14284.24842-.268104.53792-.375.86914-.106016.3223-.197569.66522-.273437 1.0293-.07217.36209-.131833.73495-.177734 1.11523-.04576.37923-.07798.74949-.09766 1.11133l.0098.043.06445.12695.08594.0449c.465149-.0613.884592-.16756 1.255859-.3164.374584-.15503.695012-.35184.957031-.59375.265476-.24833.471834-.54383.615234-.89063v-.004c.144296-.35555.216797-.76387.216797-1.21094 0-.29475-.02835-.57506-.08398-.83594v-.002c-.05183-.25634-.125475-.48288-.224609-.67578-.09651-.19981-.215483-.36134-.355469-.47852-.142461-.11927-.304576-.18359-.474609-.18359zm-18.837891.12109c-.004.007-.0057.0182-.0098.0254-.242941.43631-.55801.77595-.945312 1.02539-.370995.23894-.831814.37247-1.369141.41993l-.03125.0449.0039-.0508.0332-.0547c.551444-.0483 1.03087-.18751 1.416015-.43555.375485-.24184.667796-.5772.902344-.97461zm12.603515.01c.121115 0 .243634.0257.371094.0781.12852.0515.24759.13519.355469.25391.01494.0164.0228.0484.03711.0664-.105155-.11041-.220553-.20029-.353515-.25391h-.002c-.136906-.0561-.273995-.082-.408204-.082-.236626 0-.452045.0593-.638671.17773-.167239.10615-.302185.25305-.419922.41992.0072-.0114.01021-.0278.01758-.0391.126144-.19363.277763-.34572.453125-.45703.174127-.11046.368135-.16406.58789-.16406zm11.953126.0273c.159301 0 .320342.0508.486328.15625.164688.10464.315234.2662.451172.49024.0042.007.0056.0202.0098.0273-.122663-.1854-.253374-.3457-.410156-.44531-.175396-.11148-.356119-.16797-.537109-.16797-.235186 0-.438278.046-.603516.14062-.143488.0822-.252269.20004-.345703.33008.006-.0104.0074-.027.01367-.0371l.002-.002c.100635-.15791.224481-.27395.376953-.36133.150516-.0862.335077-.13086.556641-.13086zm-17.533204.01c.128909 0 .249004.0456.367188.14453.0223.0187.03724.0584.05859.0801-.126114-.1056-.271767-.16407-.425782-.16407-.220277 0-.422434.0745-.597656.2168-.153028.12424-.282945.30273-.404297.50195.0022-.004.0036-.01.0059-.0137.1362-.24267.288197-.4309.455078-.5664.165921-.13467.343414-.19922.541015-.19922zm11.814454 0c.128908 0 .247049.0456.365234.14453.02229.0187.03718.0584.05859.0801-.126114-.1056-.269814-.16407-.423828-.16407-.22028 0-.424388.0745-.59961.2168-.154298.12528-.284128.30438-.40625.50586.0029-.005.0049-.0126.0078-.0176h.002c.136199-.24267.288196-.4309.455078-.5664.16592-.13467.343414-.19922.541016-.19922zm18.912109.008c.163489 0 .302706.045.425781.13672l.0039.002c.125368.0861.232066.2104.320313.375.0021.004.0019.01.0039.0137-.07681-.12191-.159109-.23708-.271484-.31445-.000746-.00051-.0012-.001-.002-.002l-.04687-.0137h-.002c-.125732-.0808-.267802-.13671-.431641-.13671-.26182 0-.49898.0873-.703125.25976l-.02148.0274-.002.004c-.168509.14329-.316.33988-.449218.56836.155576-.2937.332377-.51944.527486-.67871h.002c.194945-.16462.407067-.24414.646485-.24414zm-30.726563.2207c.113285 0 .214142.0394.316407.125.104003.0871.194336.20683.271484.36719l.002.002v.002l.002.002c.0795.15403.141136.34096.185547.5625l.002.002c.04706.22013.07031.45837.07031.7168 0 .38373-.05995.71473-.179688 1.00976-.120466.29076-.295385.54695-.53125.76758-.233449.21554-.526569.39713-.878906.54297-.294221.11782-.642714.19217-1.011719.25195.01828-.26664.03878-.53504.07227-.8125.04421-.36622.100564-.72233.169922-1.07031.07216-.34624.157965-.67106.257812-.97461.09882-.30617.210857-.56838.337891-.78906l.002-.002c.1262-.22485.266343-.39875.419922-.52344.148984-.12095.308711-.17969.492187-.17969zm11.814454 0c.113283 0 .214142.0394.316406.125.104003.0871.194335.20683.271484.36719v.002l.002.002v.002c.07969.1544.143161.34131.1875.5625v.002c.04706.22013.07031.45837.07031.7168 0 .38373-.05995.71473-.179688 1.00976-.120454.29014-.295873.54741-.53125.76758-.233264.21508-.525185.39737-.876953.54297-.294274.11784-.644594.19217-1.013672.25195.01828-.26668.04071-.53492.07422-.8125.0442-.36622.09861-.72233.167969-1.07031.07216-.34624.157965-.67106.257812-.97461.09874-.30593.214624-.56813.341797-.78906v-.002c.1262-.22484.266343-.39875.419922-.52344.148985-.12095.308709-.17969.492188-.17969zm10.591796.11133c.100515 0 .172767.0241.232422.0742l.002.002c.01657.0126.0272.0528.04297.0723-.07081-.0548-.16457-.0859-.277344-.0859-.05807 0-.116517.005-.177734.0176-.0612.0126-.127466.0322-.199219.0566-.07134.0243-.152952.057-.24414.0996-.000626.00029-.0013-.00029-.002 0-.07118.0296-.157249.0702-.246094.11133l-.01758-.0215-.0098-.0918.07227.041c.08712-.04.170753-.0774.238281-.10547l.0039-.002c.08779-.0412.168023-.0718.238281-.0957.0703-.0239.131173-.0433.185547-.0547v.002c.05698-.0112.10895-.0195.158203-.0195zm-29.121093.63477c-.02053.0219-.03186.0567-.05273.0781-.338922.34789-.720576.61518-1.132812.82617l-.0039.0117.01367-.0605c.430614-.21495.825041-.49721 1.175782-.85546zm44.724609.0605c.103664 0 .195662.0378.285156.11914.01704.0155.03028.0535.04687.0723-.09555-.0809-.208951-.12695-.332031-.12695-.199665 0-.390768.16419-.587891.42968.01052-.0156.02074-.0474.03125-.0625.209362-.29527.400779-.43164.556641-.43164zM75.822266 44.95c.122413 0 .239415.0428.353515.13476l.0039.002c.106836.0792.227165.22707.353515.41797h.115235c-.01731.0284-.0243.0665-.04297.0937l-.0059-.004c-.126203-.19194-.244964-.34037-.365234-.42969-.000705-.00057-.0012-.001-.002-.002l-.05078-.0176c-.111222-.0768-.230784-.13477-.359375-.13477-.156331 0-.307703.0564-.447266.16211-.119231.0903-.221661.22798-.320312.38086.0028-.005.005-.0147.0078-.0195.113484-.1941.236389-.34041.367188-.43945.130459-.0989.25968-.14453.392578-.14453zm-57.085938.14453c.171732.22735.34965.443.535156.64453.202737.21673.404538.42798.607422.63281.192534.19811.382151.39751.56836.5957l.0039.002c.184402.19058.361175.39621.527344.61132h.002v.002c.01644.0203.0307.0438.04687.0644-.162586-.20909-.336631-.4069-.517578-.59375-.000321-.00034.00032-.002 0-.002l-.0039-.002c-.185533-.19742-.372723-.39453-.564453-.5918h-.002c-.202138-.20411-.405198-.41469-.607422-.63086h.002c-.199049-.21624-.390824-.44852-.574218-.69531-.0085-.0114-.01499-.0256-.02344-.0371zm38.150391 1.15625c-.02051.0236-.03249.0587-.05469.0801-.09572.0924-.202605.13605-.335937.14258-.119919 0-.248444-.0381-.384766-.10742l-.01953-.0332-.0039-.0312c.135346.0657.27088.11133.408203.11133H56.5c.152847-.007.284355-.0653.386719-.16211zm25.216797.17773c-.0015.003-.0024.007-.0039.01-.07187.13445-.156323.23431-.25.30273-.000297.00022-.0017-.00022-.002 0-.09157.0628-.185499.0937-.291015.0937-.06252 0-.12838-.0108-.197266-.0312l-.0059-.004c-.06581-.0268-.131236-.0674-.199219-.1211l-.01953-.0332-.0039-.0234c.0583.0434.117137.0848.181641.11133l.0059.002c.07991.0249.159789.041.238282.041.126074 0 .242484-.0381.34375-.10742l.002-.002c.08055-.0583.141787-.14736.201172-.23828zm-17.125.82227c.05843.0839.117449.16468.193359.21875l.04102.0137.0078.002c.09027.0482.18558.084.289063.084.188097 0 .368134-.0957.539062-.24024l-.0059.0293-.01563.0312c-.17752.16068-.349458.24023-.517578.24023-.0993 0-.190727-.028-.28125-.084-.08817-.0626-.170643-.1541-.242188-.27539-.00026-.00046.00026-.001 0-.002-.0027-.005-.0051-.0126-.0078-.0176zm-10.869141.13867c.144978.1972.304046.38851.488281.5664.203122.19302.414016.38357.632813.57618.243554.21584.486063.44188.726562.67578l.0039.004c.239258.22708.454907.48664.644531.78125.005.008.0068.0195.01172.0274-.178204-.26631-.374566-.51286-.597657-.72461l-.002-.002c-.240853-.23426-.484343-.46135-.728516-.67774-.21844-.19229-.428297-.38369-.630859-.57617-.198466-.19163-.374742-.39643-.529297-.61328-.0079-.0114-.0118-.0256-.01953-.0371zm8.630859.19336c-.152533.20602-.266356.44673-.46289.61328-.373277.31635-.814213.57467-1.320313.77148-.487627.18478-1.01912.32212-1.585937.41797l-.02539.0293v-.0254l.03125-.0625c.576765-.0968 1.117685-.23726 1.615235-.42578.515833-.2003.962867-.46209 1.341796-.78321.174503-.14788.267388-.35919.40625-.53515zm-11.851562.0527c-.143155.18571-.24567.40987-.425781.5625-.373929.31691-.813096.57456-1.320313.77149-.487169.18459-1.017762.32026-1.583984.41601l-.02734.0332v-.0293l.03125-.0625c.576821-.0968 1.117636-.23724 1.615234-.42578h.002c.515833-.2003.962867-.46209 1.341796-.78321.15746-.13343.238736-.32609.367188-.48242zm-1.181641.0254c-.02281.0231-.03084.0578-.05469.0801-.245241.22643-.54666.41172-.90625.56055-.339814.13623-.730379.23219-1.158203.29297l-.02344-.0449c.0013-.0241.0044-.05.0059-.0742l.05469.0508c.423305-.0616.814226-.15405 1.15625-.29102h.002c.366231-.15159.674133-.34443.923828-.57422zm11.8125.002c-.02242.0227-.03126.0562-.05469.0781-.245241.22643-.54666.41172-.90625.56055-.339416.1359-.729105.23229-1.15625.29297l-.02539-.0488c.0013-.0229.0045-.0474.0059-.0703l.05469.0508c.423305-.0616.816176-.15405 1.158203-.29102.365327-.15122.674454-.34323.923828-.57226zm6.800781 1.07422c-.000969.0167-.000964.0321-.002.0488l-.03125.0527c-.336857.004-.668931.04-.99414.12109-.341776.0794-.665673.20502-.970703.375-.305439.16413-.587225.37328-.845704.62695-.234721.22505-.431181.49965-.605468.80079.187444-.34462.409006-.63998.664062-.88477.256197-.25163.533413-.45866.832032-.61914l.002.002c.299378-.16683.614175-.29.947265-.36719l.002-.002c.315191-.0786.636745-.11521.964844-.11914zm-14.896484.38787c.122524.17495.249828.34439.386719.49805.160796.18048.325885.34758.496094.5039l.0039.004c.172812.14969.344312.29978.513672.44922.192681.17422.377683.34705.554687.51562h.002c.179019.16745.335392.34994.470703.54883.0061.009.0097.0203.01563.0293-.125434-.17595-.264404-.34527-.427735-.49805-.176894-.16845-.3613-.34077-.554687-.51562h-.002c-.168963-.14911-.341031-.29967-.513671-.44922l-.002-.002c-.169-.15522-.334055-.32421-.494141-.5039-.02239-.0251-.0405-.0564-.0625-.082-.133606-.15592-.264524-.31587-.384766-.49414l-.002-.002zm14.871094.22266c-.243898.0123-.487736.0424-.728516.0918-.243338.0439-.474887.1188-.695312.21875h-.002c-.220124.10145-.425548.23563-.615235.40039-.193785.16833-.360845.37976-.501953.63086-.138964.24743-.247804.54108-.326172.87891-.0797.33788-.11914.72584-.11914 1.1582 0 .24246.01459.47551.04102.70117v.002c.000294.002-.000297.005 0 .008v.004c.03111.22628.08006.43233.144532.61328l.0039.01c.06853.18031.155476.32978.261718.44336l.0039.006c.117701.1139.264312.17188.419922.17188.178354 0 .354335-.0767.52539-.2168.168407-.13783.329696-.3261.484375-.55859.15845-.23334.30793-.50771.447266-.82422.142403-.32219.268827-.67281.380859-1.04883.112043-.37605.204892-.76937.277344-1.18164v-.004l.002-.0117v-.002c.07449-.41597.123625-.83969.146484-1.27344l-.0098-.041-.06055-.12891zm-.04492.17578l.02539.0508c-.0014.026-.0082.0503-.0098.0762l-.04883-.0625c-.211995.0143-.424426.0366-.636719.0801-.239155.0429-.466253.11523-.68164.21289-.212676.0979-.409587.22455-.591797.38281-.160218.13916-.290297.31967-.410157.51563.0012-.002.000787-.006.002-.008.133068-.23679.289354-.4318.466796-.58593.178382-.15494.369051-.28045.574219-.375.208854-.0947.428266-.16375.658203-.20508h.002c.214841-.044.432689-.0686.650391-.082zm-.123047.24609c-.02422.33214-.05388.66221-.111328.98047v.002h-.002c-.06908.39361-.155287.76972-.261719 1.12696-.106694.3581-.228905.68818-.363281.99218-.130978.29754-.268247.55182-.41211.76368l-.002.006c-.14017.21048-.281794.36972-.421875.48438-.138156.11308-.260667.16211-.371093.16211-.09968 0-.175064-.0318-.244141-.0977l-.002-.002c-.07097-.0773-.133302-.18001-.185547-.31836v-.002c-.05039-.14257-.08871-.31003-.115234-.50196v-.002c-.02408-.20367-.03711-.41372-.03711-.63672 0-.39754.03551-.73965.103516-1.02734h.002c.06955-.29983.16351-.55441.28125-.76367.122735-.21842.265041-.40023.431641-.54493.170389-.14799.354212-.26599.552734-.35742.202639-.0919.416096-.15878.640625-.19922h.004c.168667-.0345.341178-.0503.513672-.0644zm5.095703.56445l.08203.008c-.03421.24061-.07681.44562-.109376.69336l-.0059-.0156c.01232-.22834.02154-.45715.0332-.68555zm-55.908203.0899l.386719.0351.0293.0625c-.000841.0129-.0012.0243-.002.0371l-.03516-.0391-.361328-.0352-.04492.041c.000693-.0224.0013-.036.002-.0586zm67.3125 0l.08203.01c-.03233.18614-.0697.30232-.101562.4961.0068-.1804.01305-.33077.01953-.50586zM68.294924 52.0938c-.01194.13307-.01916.25885-.02539.38086l-.08984-.0137c.03615-.12301.08172-.24372.115234-.36719zm-35.744141.12695c.01361.0135.02823.0248.04297.041.0024.003.0034.005.0059.008l.0039.006c.03217.0331.06104.0737.08984.12109l.0039.004c.0015.002.0024.006.0039.008-.0029-.004-.0049-.008-.0078-.0117-.01049-.0125-.02-.0275-.03125-.0391-.02192-.0246-.03861-.0384-.05273-.0527l-.126953.0156c.02278-.0372.04561-.0615.06836-.0996zm20.667969.23438l.01953.0351.01563.0508-.04297-.0234c-.109317.009-.218942.037-.326172.0898-.000597.0003-.0014-.00029-.002 0-.102295.0467-.190448.12361-.271484.21289.01337-.0184.02109-.0498.03516-.0664.08568-.10094.17851-.17367.277344-.21875l.002-.002c.09638-.0477.194624-.0694.292969-.0781zm-20.529297.29297h.123045c0 .0297-.01262.0537-.01758.0781-.0013.00048-.0039.002-.0039.002s-.03711.00001-.03711 0l-.02539-.0117-.0078-.004c.000025.00002-.02541-.0333-.02539-.0332.000042.0001-.0059-.0217-.0059-.0215.000056.00041 0-.009 0-.01zm49.230469.18945c.01021.0118.01698.018.0293.0332l.0059.008.0059.006c.02868.0278.05525.0609.08008.10156.0066.0107.01135.0223.01758.0332-.01197-.0144-.02221-.0323-.03516-.0449-.0025-.002-.0053-.005-.0078-.008h.002c-.01727-.0215-.02931-.0303-.03711-.0391l-.128907.0195c.0223-.047.04618-.0602.06836-.10938zM51.367188 53c.0084.01.01377.0155.02344.0273l.0059.01.01172.0137c.03003.0292.05633.0608.08008.0996l.0039.004c.0056.008.01022.0204.01562.0293-.01236-.0155-.02299-.033-.03711-.0469-.0026-.003-.0052-.005-.0078-.008v-.002c-.01555-.0192-.02755-.0304-.03711-.041l-.130859.0156c.02412-.0439.04812-.0557.07227-.10156zm11.8125 0c.01018.0118.01732.0185.0293.0332l.002.002.01172.0137c.0281.0273.05227.0576.07422.0918l.002.004.0059.01c.0046.007.0091.0162.01367.0234-.01135-.0135-.021-.0291-.0332-.041l-.0078-.008v-.002c-.01614-.02-.02734-.0301-.03711-.041l-.132812.0156c.02411-.0439.04811-.0557.07227-.10156zm18.86914.35156l.04102.0137-.0098.006-.0293-.008zm.002.0137c.01047.003.01339.004.02539.008.000841.00027.0011-.00027.002 0 .000822.00027.0012-.00027.002 0 .0045.001.0063.003.0098.004h-.03716v-.004zm.06055.006l.01563.006h-.02539l-.01562-.004c.01185-.0004.01274-.002.02539-.002zm-50.363281.006c-.01706.0212-.03372.0536-.05078.0742-.269874.32457-.537421.59331-.802735.8086-.265298.20928-.525984.36464-.78125.46484-.252951.0946-.496669.14258-.734375.14258-.340596 0-.665167-.0995-.978515-.30078-.310133-.20129-.603649-.49422-.876953-.87891v-.002c-.0097-.014-.01773-.0366-.02734-.0508.263777.36239.54628.65608.853515.85546.323854.20809.66885.3125 1.029297.3125.251042 0 .507514-.0485.769532-.14648h.002c.265006-.10405.53076-.26342.798828-.47461h.002c.000288-.00023-.000288-.002 0-.002.26493-.2151.530743-.48406.796875-.80274zm50.359375.006c.0019-.00015.002.00016.0039 0 .0031.00065.01758.004.03516.008-.000126.002-.0018.005-.002.008l-.04883-.0137c.0028-.00028.01172-.002.01172-.002zm.01758 0c.0071.00005.0108-.00013.02148 0-.00005.002.000083.004 0 .006zm-.06445.004l-.0059.006v-.004c.0028-.00027.0029-.002.0059-.002zm-18.775391.0606h.06836c-.02082.002-.06642.008-.06641.008.000016.00013-.0018-.005-.002-.008zm.08594 0h.03711c-.00011.0137-.0058.0238-.0078.0371-.0141-.018-.02742-.0347-.0293-.0371zm3.697265.33789c-.006.009-.0116.0224-.01758.0312-.148057.22254-.298445.39809-.449219.52148-.150718.12341-.289612.17969-.419921.17969-.117129 0-.213362-.0366-.302735-.12305-.01742-.0186-.02834-.0566-.04492-.0781.09444.0852.21319.13867.347657.13867.160017 0 .318774-.0701.476562-.19922.140855-.11529.276902-.2803.410156-.4707zm-4.480468.0469c-.123243.16577-.249153.41906-.369141.52539-.299122.26193-.585307.38477-.859375.38477-.271147 0-.524422-.11709-.769531-.36719-.01851-.0189-.03063-.06-.04883-.0801.247454.24827.521514.38477.818359.38477.305294 0 .612393-.14062.917969-.40821.103817-.092.20709-.31131.310547-.43945zm-11.892579.11133c-.09669.12122-.196441.33025-.291015.41406-.29912.26193-.585308.38477-.859375.38477-.271149 0-.524421-.11709-.769531-.36719-.01851-.0189-.03063-.06-.04883-.0801.247462.24829.523459.38477.820313.38477.305044 0 .611058-.14158.916016-.40821.0775-.0687.155005-.23932.232421-.32812zm-5.96875.0469c.09609.13867.190411.26844.28125.36133l.002.002c.110382.10908.222752.18956.33789.24023.115296.0508.236065.0742.361328.0742.134351 0 .26475-.0235.386719-.0742.101698-.0423.213916-.1109.330078-.1875l.01172.0117.01758.0996-.08203-.0352c-.114195.0752-.225032.14169-.316406.17969-.110909.0462-.225921.0703-.347657.0703-.111627 0-.217931-.0244-.322265-.0703-.102388-.0451-.208719-.12209-.316407-.22852-.105242-.10739-.218105-.24723-.333984-.42187h.002c-.0037-.006-.008-.0156-.01172-.0215zm-23.267578.10157c-.0065.0101-.0091.0272-.01563.0371h-.002c-.216221.33205-.465981.57928-.746094.74414-.280246.15868-.571729.23828-.880859.23828-.311281 0-.590534-.0661-.841797-.19531h-.002c-.245705-.13443-.462589-.35055-.646484-.65235-.0051-.008-.0067-.0246-.01172-.0332.173426.2653.372142.48355.613281.61523h.0039l.03711.01c.25473.12411.536136.19531.847656.19531.327471 0 .638041-.0864.929688-.25195h.002c.273928-.16123.506667-.40644.71289-.70703zm35.580078.01l.01953.0273-.02148-.0254c.000292-.00091.0017-.001.002-.002zm33.720704.0918l.0098.008.02148.10938-.0918-.0332c-.162538.13239-.323912.24671-.478516.32422l-.002.002c-.174057.0808-.338644.12109-.496094.12109-.106135 0-.191306-.027-.265625-.082-.01543-.0127-.02592-.0579-.04102-.0762.0065.004.0167.004.02344.008.0034.002.0083.002.01172.004.0787.046.166573.082.271484.082.175131 0 .354584-.0428.539063-.12891l.002-.002c.164597-.0825.330781-.20082.496094-.33594zm-9.705078.10156c-.01682.0174-.03395.062-.05078.0781-.29594.27929-.582023.41601-.857422.41601-.261189 0-.508079-.11522-.75-.35937-.01852-.0187-.03061-.0602-.04883-.0801.243848.24141.511954.375.798828.375.305881 0 .60964-.15047.908204-.42969zm-27.183594.22852c.15046.19282.313453.34967.498047.44922.19846.10519.399304.1582.597656.1582.185373 0 .363506-.0472.533203-.14063.15442-.085.286266-.21154.404297-.35937-.01012.0146-.01497.0387-.02539.0527-.1254.16843-.265273.29363-.423828.38086-.158872.0875-.320443.13086-.488281.13086-.180464 0-.3646-.0487-.552735-.14843-.183695-.099-.356285-.25259-.513671-.4629-.01156-.0154-.01798-.0444-.0293-.0605zm-22.03711.0137c-.0085.0117-.01692.0314-.02539.043-.321659.43927-.646005.79347-.96875 1.0625-.323004.26923-.646037.46023-.970703.57226h-.002c-.323222.11857-.644602.17578-.966797.17578-.425388 0-.830517-.1104-1.220703-.33593-.386725-.21966-.750856-.5406-1.087891-.96094-.01343-.0168-.02377-.0435-.03711-.0606.331353.40706.688456.72706 1.076171.94727.40108.2318.826053.34961 1.269532.34961.334368 0 .670967-.0615 1.003906-.1836.337126-.11672.667918-.31206.994141-.58398.313932-.26168.626408-.61006.935546-1.02539zm39.22461.0137l.01563.006.03516.0977-.107422-.0215c-.28213.29952-.540521.47071-.742187.47071-.125655 0-.239272-.0485-.34961-.1543-.01661-.0159-.02864-.0556-.04492-.0742.114333.10376.24829.16406.394532.16406.252352 0 .516708-.18953.798828-.48828zm19.78125.1582l-.002.0137c-.114512.17029-.255896.34028-.427735.51562-.176542.18016-.36186.34674-.55664.4961-.191177.14901-.382231.26662-.572266.35546h-.002c-.188962.0941-.3525.14063-.488281.14063-.155383 0-.276705-.0711-.378907-.25-.0078-.0137-.01003-.0422-.01758-.0566.09764.13985.226361.24414.396485.24414.157875 0 .334643-.0487.53125-.14649.195963-.0917.391739-.21399.585937-.36523.19766-.15154.385082-.31896.5625-.5.149627-.15268.265409-.30121.369141-.44727zm-68.898438.21875c-.01284.0164-.02218.0426-.03516.0586l-.002.002c-.260353.32471-.528774.583-.808594.7793-.280481.19677-.5604.33736-.837891.41992-.279682.0891-.536912.13477-.771484.13477-.313603 0-.607293-.0441-.882812-.12696l-.002.002c-.275819-.0771-.517399-.18208-.726562-.3125-.205953-.13041-.367779-.2765-.490234-.44532-.0082-.012-.006-.0269-.01367-.0391.117991.14836.262832.2875.453125.4082l.0059.002c.214069.13279.461607.23971.742188.31836.284871.0858.591137.1289.914062.1289.239646 0 .49875-.047.775391-.13281l.02539-.004c.288833-.0859.575646-.22926.861329-.42968.276776-.19418.540224-.45339.792968-.76368zm49.25.0703c-.214496.39801-.448016.70324-.695312.9082-.250089.20724-.504378.30664-.771485.30664-.198371 0-.380983-.0629-.552734-.19141-.171331-.1282-.325076-.31948-.455078-.58007-.000484-.00097-.0015-.00099-.002-.002v-.004c-.000997-.002-.00096-.006-.002-.008.116934.2116.244452.39797.404297.51758.182031.13627.387834.20703.607421.20703.2925 0 .569973-.11221.828125-.32617.234244-.19415.442873-.48357.638672-.82812zm-27.695312.0703s.0063.0635.0078.0762c-.0047-.0123-.02728-.0703-.02734-.0703-.000072.00003.0196-.006.01953-.006zm.07227.0488c.0033.006.0065.01.0098.0156-.01485.004-.07227.0195-.07227.0195.000066 0 .02727.0782.02734.0781-.0029.00071-.01568.006-.01563.006l-.01172-.084.02539-.0156zm2.988282.041l-.01172.0488c-.398493.33862-.754545.59231-1.060547.75586l-.002.002c-.312248.17286-.569545.25782-.767578.25782-.09823 0-.190008-.0229-.28125-.0684l-.0039-.002c-.08968-.0393-.181802-.10267-.273438-.1914-.092-.089-.184388-.20015-.277344-.33789-.000322-.00048.000322-.001 0-.002v-.002c-.0061-.009-.01335-.0235-.01953-.0332.07862.11069.156057.21329.236328.29101.09465.0916.192271.16024.294922.20508l.03516.008-.03516-.01c.01174.006.02519.005.03711.01.09173.04.186574.0684.28711.0684.226684 0 .495715-.0911.814453-.26758.301033-.16089.647914-.41379 1.027344-.73242zm6.162109.0234c.09835.14234.205551.27695.328125.39648l.0098.0117c.0023.002.0035.006.0059.008l.0039.004c.154961.13868.317433.25789.490235.35547.173503.098.353096.17148.537109.2207.187078.0489.369702.0742.544922.0742.349147 0 .685656-.0907 1.005859-.26757.310458-.16427.57921-.41443.816407-.72461-.01033.0145-.01489.0385-.02539.0527-.244376.33086-.523409.57684-.835938.74219l-.002.002c-.309406.17099-.6272.25391-.958984.25391-.166575 0-.340483-.0194-.519531-.0664-.175999-.047-.345914-.11815-.513672-.21289-.167079-.0944-.328008-.21125-.480469-.34766-.000295-.00026.000295-.002 0-.002-.150128-.1434-.28429-.30533-.400391-.48633-.0025-.004-.0034-.01-.0059-.0137zm25.447266.25977c.182489.23637.383456.42919.609375.56836.0037.002.006.007.0098.01v.002c.244053.15432.514873.23047.806641.23047.527067 0 1.009339-.24514 1.443359-.70117-.01377.0154-.02127.0535-.03516.0684-.435229.46698-.902349.69141-1.408203.69141-.274567.00001-.523849-.0682-.755859-.21485l-.002-.002c-.233068-.1414-.445664-.34083-.638672-.59961-.0109-.015-.01853-.0375-.0293-.0527zm-13.476563.0332c.120141.20792.251913.39418.416016.52344.187966.14809.403291.22656.636719.22656.28479 0 .554431-.13109.800781-.37891-.02025.0209-.03816.0583-.05859.0781l-.002.002c-.241655.24342-.486566.35938-.740234.35938-.210701 0-.401585-.0684-.580079-.20899-.179156-.14114-.337263-.33801-.470703-.59375-.0011-.002-.00087-.006-.002-.008zm-14.291015.10156c-.02009.022-.03837.0571-.05859.0781-.220429.22688-.44472.39468-.669922.5h-.002c-.226783.11197-.445566.16797-.66211.16797-.372806 0-.715125-.14201-1.033203-.4336-.02047-.0188-.0326-.0584-.05273-.0781.324154.29523.689121.45117 1.085937.45117.233017 0 .468961-.0595.705079-.17578.236453-.11059.465423-.28163.6875-.50977zm11.8125.002c-.01953.0214-.03699.0557-.05664.0762-.22083.22753-.444297.39448-.669922.5h-.002c-.226281.11149-.446205.16797-.66211.16797-.372804 0-.713076-.14193-1.03125-.4336-.0201-.0184-.03295-.0569-.05273-.0762.323632.29397.68803.44922 1.083984.44922.233018 0 .46896-.0595.705079-.17578.235465-.11013.463964-.28059.685547-.50782zm-22.734376.17774c-.000159.01.00016.0196 0 .0293l-.02734.0586-1.091797.25977-.03711-.01-.0293-.0625c.00023-.0103.0017-.019.002-.0293l.02734.0332.02344.004.03125-.002 1.083984-.25781zm33.685547.008c-.000379.007.00037.0199 0 .0274l-.02734.0527-.958985.22266-.02539-.002-.0293-.0625c.000269-.006.0017-.0135.002-.0195l.0098.0156.0078.004.04883.004.958985-.22461zm11.416016 0c-.000236.008-.0017.0156-.002.0234l-.0293.0566-.976563.22266-.02734-.002-.0293-.0625c.000322-.0118.0016-.0272.002-.0391l.04102.043h.0098l.01953-.002.976562-.22266zm-74.240234 4.95508l.01172.0137c.01156.038.02925.0453.04102.082l-.05078-.0352c-.102772.006-.208449.0387-.298828.11718-.071522.0646-.1292101.1505-.1855472.23633v-.002l.00195-.004c.07128-.12641.1522561-.22923.2421871-.31054.07747-.0673.156477-.0912.238282-.0977zm2.376953 1.37695c-.01183.0159-.01924.0512-.03125.0664v.002c-.227871.29422-.484297.43164-.783203.43164-.286055 0-.555884-.13338-.814453-.41406v-.002c-.01252-.0131-.02081-.0542-.0332-.0684.256173.26707.540293.41992.847657.41992.318476 0 .589984-.16097.814453-.43555zm.443359.89844c-.0067.01-.01283.0257-.01953.0352h-.002c-.193306.27723-.389959.50177-.589844.66797-.200461.16666-.398909.28337-.595703.35351-.198284.0707-.391449.10547-.578125.10547-.249928 0-.478181-.055-.6875-.16602h-.002c-.213173-.10579-.396356-.25045-.552735-.43554-.01559-.0184-.02216-.0472-.03711-.0664.153154.17469.332015.31838.542969.42383l.0039.006c.221766.11758.467528.17773.732422.17773.199746 0 .404491-.0395.611328-.11328.208974-.0745.414467-.197.619141-.36719.190128-.15808.374841-.37161.554687-.62109z" color="#000" font-family="Gabriola" font-size="25.54300499" font-weight="400" letter-spacing="0" overflow="visible" style="line-height:1.25;-inkscape-font-specification:'Gabriola, Normal';font-variant-ligatures:normal;font-variant-position:normal;font-variant-caps:normal;font-variant-numeric:normal;font-variant-alternates:normal;font-feature-settings:normal;text-indent:0;text-align:start;text-decoration-line:none;text-decoration-style:solid;text-decoration-color:#000;text-transform:none;text-orientation:mixed;shape-padding:0;isolation:auto;mix-blend-mode:normal" white-space="normal" word-spacing="0"/>
</svg>
